<svg id="OBJECTS" xmlns="http://www.w3.org/2000/svg" viewBox="0 0 695.37 436.84"><defs><style>.cls-1{fill:#f9e8d2;}.cls-11,.cls-15,.cls-19,.cls-2,.cls-23,.cls-27,.cls-37,.cls-44,.cls-48,.cls-52,.cls-8{fill:none;}.cls-2{stroke:#e2b78d;}.cls-11,.cls-15,.cls-19,.cls-2,.cls-23,.cls-25,.cls-27,.cls-37,.cls-44,.cls-48,.cls-52,.cls-8{stroke-miterlimit:10;}.cls-3{fill:#f9dab9;}.cls-4{fill:#feedb9;}.cls-5{fill:#fff;}.cls-6{fill:#ffdad7;}.cls-7{fill:#ccdaf2;}.cls-25,.cls-8{stroke:#000;}.cls-9{fill:#f99c8b;}.cls-10{fill:#323c66;}.cls-11{stroke:#6d81e2;}.cls-12{fill:#6d81e2;}.cls-13{fill:#fb7e48;}.cls-14{fill:#d8e0a9;}.cls-15{stroke:#a1af75;}.cls-16{fill:#6f2d0c;}.cls-17{fill:#934624;}.cls-18{fill:#e2623b;}.cls-19{stroke:#ffd990;}.cls-20{fill:#5f3122;}.cls-21{fill:#ef9f4a;}.cls-22{fill:#ea6744;}.cls-23{stroke:#2d2a27;}.cls-24{fill:#2d2a27;}.cls-25{fill:#bc5937;}.cls-26{fill:#f49082;}.cls-27{stroke:#ffd49c;stroke-linecap:round;stroke-width:2px;}.cls-28{fill:#ef897b;}.cls-29{fill:#ffd49c;}.cls-30{fill:#ffefcc;}.cls-31{fill:#ffed9f;}.cls-32{fill:#ff945f;}.cls-33{fill:#d15342;}.cls-34{fill:#963a30;}.cls-35{fill:#914539;}.cls-36{fill:#ef6c80;}.cls-37{stroke:#ef6c80;}.cls-38{fill:#77352c;}.cls-39{fill:#7f683b;}.cls-40{fill:#a0885c;}.cls-41{fill:#722a21;}.cls-42{fill:#ffaa71;}.cls-43{fill:#ffeebd;}.cls-44{stroke:#f4d182;}.cls-45{fill:#8e4326;}.cls-46{fill:#ef6145;}.cls-47{fill:#250100;}.cls-48{stroke:#773c2c;}.cls-49{fill:#441a0c;}.cls-50{fill:#773c2c;}.cls-51{fill:#db4e3b;}.cls-52{stroke:#7c351f;}</style></defs><path class="cls-1" d="M662.28,256.62a23.57,23.57,0,0,1,3-4.83,53.49,53.49,0,0,1,13.63-12.2A74.09,74.09,0,0,1,697.27,231c4.59-1.42,14.49-5.32,18.43-.57a7.1,7.1,0,0,1,.94,6.36c-.88,3.08-3,5.52-5.27,7.68a90.74,90.74,0,0,1-15.16,11.43,98.9,98.9,0,0,1-14.87,7.8c-4.6,1.87-11.73,5-16.75,3.55-2.26-.65-3.38-2.69-3.47-5A12.72,12.72,0,0,1,662.28,256.62Z" transform="translate(-22.86 -43.47)"/><path class="cls-2" d="M707.19,238C684.27,246.86,625,288.8,588.7,336.61" transform="translate(-22.86 -43.47)"/><path class="cls-1" d="M169.84,334.08c-19.43-34.34-59-61.5-82.8-75.89C78.31,252.9,68.9,248,58.78,246.7c-7.91-1-16.79.67-20.7,6.65-5.33,8.17,1.09,19.3,8.71,26.82,14.44,14.24,32.65,19.89,52,27.54s52,18.17,71.06,26.37" transform="translate(-22.86 -43.47)"/><path class="cls-2" d="M49.87,260.89c64,25.84,90.29,51.18,120,73.19" transform="translate(-22.86 -43.47)"/><path class="cls-3" d="M69.48,216.49a7.05,7.05,0,0,0-.44-1.23,13.86,13.86,0,0,0-2.81-3.75C55.77,200.72,41.34,191.32,27,186.65c-1.51-.5-3.71-.61-4.13.92-.26,1,.46,1.89,1.13,2.62a129.33,129.33,0,0,0,40.42,29.48C67.86,221.25,70.28,219.66,69.48,216.49Z" transform="translate(-22.86 -43.47)"/><path class="cls-3" d="M647.57,101.17a7.62,7.62,0,0,0-1.2.53,14,14,0,0,0-3.52,3.08c-10,11.24-18.29,26.33-21.89,40.94-.38,1.54-.32,3.74,1.23,4,1,.19,1.85-.59,2.53-1.32a129.42,129.42,0,0,0,26.39-42.5C652.43,102.44,650.67,100.14,647.57,101.17Z" transform="translate(-22.86 -43.47)"/><path class="cls-1" d="M553.88,333.93c22.82-25.83,60.52-40.44,82.74-47.51,8.17-2.6,16.8-4.67,25.27-3.43,6.64,1,13.48,4.63,15.42,10.89,2.64,8.53-4.85,16.88-12.57,21.73-14.64,9.18-30.57,9.83-47.82,12s-45.87,3.66-63,6.35" transform="translate(-22.86 -43.47)"/><path class="cls-2" d="M666.21,297.74c-57.17,7.59-83.74,23.77-112.33,36.19" transform="translate(-22.86 -43.47)"/><path class="cls-1" d="M87,353.18a4,4,0,0,0-.09-.78,3,3,0,0,0-1.07-1.72c-4.38-3.89-11.13-4.92-18.41-2.26A4.2,4.2,0,0,0,65,351a1.37,1.37,0,0,0,.29,1.56c4.69,4.7,11,6.54,18.5,5.37C85.46,357.66,87,355.33,87,353.18Z" transform="translate(-22.86 -43.47)"/><path class="cls-1" d="M314.23,55.73a5.17,5.17,0,0,1,.8-.36,3,3,0,0,1,2.11,0c5.6,2,9.38,7.76,9.8,16.19a5.44,5.44,0,0,1-1.51,3.74c-.74.76-1.26.73-1.65.63-6.51-1.78-10.91-6.73-12.86-14.5C310.48,59.72,312.12,56.93,314.23,55.73Z" transform="translate(-22.86 -43.47)"/><path class="cls-1" d="M633.08,390.93a4.94,4.94,0,0,0,.18-.76,3.06,3.06,0,0,0-.43-2c-2.83-5.13-8.85-8.36-16.6-8.29a4.23,4.23,0,0,0-3.12,1.62,1.38,1.38,0,0,0-.25,1.57c2.85,6,8.2,9.85,15.64,11.25C630.16,394.66,632.39,393,633.08,390.93Z" transform="translate(-22.86 -43.47)"/><path class="cls-3" d="M115.19,222.58a32.79,32.79,0,0,0-1-7.7,76.52,76.52,0,0,0-10.3-23.38,110.23,110.23,0,0,0-18.42-22c-5-4.63-15.36-15.6-23.12-12.35-2.76,1.15-4.4,4.13-4.86,7.09-.67,4.27.66,8.59,2.26,12.61a132.12,132.12,0,0,0,12.67,23.42,146.23,146.23,0,0,0,14.4,18.82c4.77,5.18,12,13.46,19.26,14.9,3.24.64,5.84-1.11,7.31-3.9A16.35,16.35,0,0,0,115.19,222.58Z" transform="translate(-22.86 -43.47)"/><path class="cls-2" d="M68.87,171.61a234.84,234.84,0,0,1,52.94,89.12" transform="translate(-22.86 -43.47)"/><path class="cls-3" d="M644.38,330.27a17,17,0,0,1,4.51-1.55,33.42,33.42,0,0,1,14.68.47,46.68,46.68,0,0,1,15,6.54c3.29,2.18,10.9,6.25,10.08,12.61a8.39,8.39,0,0,1-3.41,5.44,12.59,12.59,0,0,1-7.48,2.05,56.12,56.12,0,0,1-15-2.13,61.81,61.81,0,0,1-12.63-4.65c-3.57-1.85-9.25-4.55-11-9.18a6.54,6.54,0,0,1,1.26-6.23A11.84,11.84,0,0,1,644.38,330.27Z" transform="translate(-22.86 -43.47)"/><path class="cls-2" d="M679.53,348c-17.56-9.51-54.34-24.7-94.54-9.1" transform="translate(-22.86 -43.47)"/><path class="cls-3" d="M176.34,371.58c-15.9-15.7-31.22-32.31-47.81-46.89-9.2-8.08-18.74-15.79-29.11-21.33-6.09-3.25-28.24-14.58-31.85-2.22a9.54,9.54,0,0,0,.87,6.77c4.59,9,13.86,14.73,21,19.82,27,19.17,58.81,26.32,86.85,43.85" transform="translate(-22.86 -43.47)"/><path class="cls-2" d="M84.76,308.94a492.47,492.47,0,0,1,91.58,62.64" transform="translate(-22.86 -43.47)"/><path class="cls-1" d="M594.34,296.55c3.71-20.62,6.14-41.51,11.38-61.77,2.91-11.24,6.44-22.42,12.44-32.61,3.53-6,16.74-27.38,29.75-21a8.12,8.12,0,0,1,4.3,5.23c2.34,9-2.42,18.69-5.63,26.62-12.05,29.84-38,54.23-52.24,83.54" transform="translate(-22.86 -43.47)"/><path class="cls-2" d="M636.9,197.09s-28.33,45.06-42.56,99.46" transform="translate(-22.86 -43.47)"/><path class="cls-3" d="M604.91,272c10.5-18,20.07-37.17,31.66-53.64,6.43-9.14,13.33-17.76,21.85-23.54,5-3.39,23.38-15.09,31.46,1a15.13,15.13,0,0,1,1.53,8.46c-1.43,10.83-8.76,17-14.22,22.58-20.53,21-50.15,26.31-72.28,45.15" transform="translate(-22.86 -43.47)"/><path class="cls-2" d="M675.26,203.61s-39.1,24.24-70.35,68.36" transform="translate(-22.86 -43.47)"/><path class="cls-4" d="M98,127.11a3.2,3.2,0,0,0-2.78-2.83c-1.16-.23-3,.45-4.19.48A19.5,19.5,0,0,0,94.36,123a4.24,4.24,0,0,0,1.82-2.21,2.66,2.66,0,0,0-.59-2.71,2.72,2.72,0,0,0-2.91-.39,5,5,0,0,0-2.22,2.09c-.54.89-.92,1.86-1.37,2.79a12.83,12.83,0,0,0,.54-4.21,3.73,3.73,0,0,0-1.76-3.16c-2.5-1.63-4.41,1.61-4.23,3.59.13,1.39,1.24,2.35,1.87,3.6a7,7,0,0,0-3.33-2.1,3.15,3.15,0,0,0-3.46,1.35,2.87,2.87,0,0,0,.38,3,4.24,4.24,0,0,0,2.78,1.47,8.42,8.42,0,0,0,3.19-.27,10.13,10.13,0,0,0-3.43,2,3.42,3.42,0,0,0-1,3.61,3.12,3.12,0,0,0,1.23,1.41,2.8,2.8,0,0,0,2.05.5,3.43,3.43,0,0,0,1.74-1.15,18,18,0,0,0,2.51-4c-.05,1.7-.59,3,0,4.54A3.3,3.3,0,0,0,90.77,135a3,3,0,0,0,2.87-2.59,4,4,0,0,0-.81-2.74,10.32,10.32,0,0,0-2.1-2c1,.47,2,1.17,3.06,1.59a3.45,3.45,0,0,0,3.29-.18A2.46,2.46,0,0,0,98,127.11Z" transform="translate(-22.86 -43.47)"/><path class="cls-5" d="M89.64,125.09c-.38-.85-1.3-1.79-1.94-1.71a1,1,0,0,0-.73,1,2.35,2.35,0,0,0,1.6,1.79C89.47,126.54,90.06,126,89.64,125.09Z" transform="translate(-22.86 -43.47)"/><path class="cls-4" d="M687.6,159.83a3.19,3.19,0,0,0-2.78-2.83c-1.16-.23-3,.45-4.19.48a19.13,19.13,0,0,0,3.33-1.73,4.24,4.24,0,0,0,1.82-2.21,2.66,2.66,0,0,0-.59-2.71,2.72,2.72,0,0,0-2.91-.39,5,5,0,0,0-2.22,2.09c-.54.89-.91,1.86-1.37,2.79a12.57,12.57,0,0,0,.54-4.21,3.73,3.73,0,0,0-1.76-3.16c-2.5-1.63-4.41,1.61-4.23,3.59.13,1.39,1.24,2.35,1.87,3.6a7,7,0,0,0-3.32-2.1,3.14,3.14,0,0,0-3.46,1.35,2.87,2.87,0,0,0,.37,3,4.22,4.22,0,0,0,2.78,1.47,8.4,8.4,0,0,0,3.19-.27,10.13,10.13,0,0,0-3.43,1.95,3.46,3.46,0,0,0-1,3.61,3.12,3.12,0,0,0,1.23,1.41,2.8,2.8,0,0,0,2,.5,3.43,3.43,0,0,0,1.74-1.15,18,18,0,0,0,2.51-4c0,1.7-.59,3,0,4.54a3.32,3.32,0,0,0,2.58,2.28,3,3,0,0,0,2.87-2.59,4,4,0,0,0-.81-2.74,10.32,10.32,0,0,0-2.1-2c1,.47,2,1.17,3.06,1.59a3.45,3.45,0,0,0,3.29-.18A2.46,2.46,0,0,0,687.6,159.83Z" transform="translate(-22.86 -43.47)"/><path class="cls-5" d="M679.25,157.81c-.38-.85-1.31-1.79-2-1.71a1,1,0,0,0-.73,1,2.37,2.37,0,0,0,1.6,1.79C679.07,159.26,679.66,158.75,679.25,157.81Z" transform="translate(-22.86 -43.47)"/><path class="cls-4" d="M463.66,97a3.17,3.17,0,0,0-2.78-2.82c-1.16-.24-3,.44-4.19.47A19.08,19.08,0,0,0,460,92.94a4.3,4.3,0,0,0,1.82-2.22,2.66,2.66,0,0,0-.59-2.71,2.76,2.76,0,0,0-2.91-.39,5,5,0,0,0-2.22,2.1c-.54.88-.91,1.85-1.37,2.78a12.57,12.57,0,0,0,.54-4.21,3.72,3.72,0,0,0-1.76-3.15c-2.5-1.64-4.4,1.61-4.22,3.58.12,1.4,1.24,2.36,1.86,3.61a7,7,0,0,0-3.32-2.11,3.16,3.16,0,0,0-3.46,1.35,2.89,2.89,0,0,0,.37,3,4.31,4.31,0,0,0,2.78,1.47,8.62,8.62,0,0,0,3.19-.28,10.13,10.13,0,0,0-3.43,1.95,3.48,3.48,0,0,0-1,3.62,3.23,3.23,0,0,0,1.23,1.41,2.79,2.79,0,0,0,2,.49,3.37,3.37,0,0,0,1.74-1.15,18,18,0,0,0,2.51-4c0,1.71-.59,3,0,4.54a3.32,3.32,0,0,0,2.58,2.28,3,3,0,0,0,2.87-2.58,3.94,3.94,0,0,0-.81-2.75,10.07,10.07,0,0,0-2.1-2c1.05.47,2,1.17,3.06,1.59a3.42,3.42,0,0,0,3.29-.18A2.45,2.45,0,0,0,463.66,97Z" transform="translate(-22.86 -43.47)"/><path class="cls-5" d="M455.31,95c-.38-.86-1.31-1.79-1.95-1.72a1,1,0,0,0-.73,1,2.34,2.34,0,0,0,1.6,1.78C455.13,96.45,455.72,95.93,455.31,95Z" transform="translate(-22.86 -43.47)"/><path class="cls-4" d="M293.58,95.07a3.19,3.19,0,0,0-2.78-2.83c-1.16-.23-3,.45-4.19.48A19.13,19.13,0,0,0,289.94,91a4.24,4.24,0,0,0,1.82-2.21,2.66,2.66,0,0,0-.59-2.71,2.74,2.74,0,0,0-2.91-.39A5,5,0,0,0,286,87.77c-.54.89-.91,1.86-1.37,2.79a12.57,12.57,0,0,0,.54-4.21,3.73,3.73,0,0,0-1.76-3.16c-2.5-1.63-4.41,1.61-4.23,3.59.13,1.39,1.24,2.35,1.87,3.6a7,7,0,0,0-3.32-2.1,3.16,3.16,0,0,0-3.47,1.35,2.89,2.89,0,0,0,.38,3,4.22,4.22,0,0,0,2.78,1.47,8.4,8.4,0,0,0,3.19-.27,10.13,10.13,0,0,0-3.43,2,3.44,3.44,0,0,0-1,3.61,3.12,3.12,0,0,0,1.23,1.41,2.8,2.8,0,0,0,2.05.5,3.43,3.43,0,0,0,1.74-1.15,18,18,0,0,0,2.51-4c-.05,1.7-.59,3,0,4.54a3.3,3.3,0,0,0,2.58,2.28,3,3,0,0,0,2.87-2.59,4,4,0,0,0-.81-2.74,10.32,10.32,0,0,0-2.1-2c1.05.47,2,1.17,3.06,1.59a3.45,3.45,0,0,0,3.29-.18A2.46,2.46,0,0,0,293.58,95.07Z" transform="translate(-22.86 -43.47)"/><path class="cls-5" d="M285.22,93.05c-.37-.85-1.3-1.79-1.94-1.71a1,1,0,0,0-.73,1,2.37,2.37,0,0,0,1.6,1.79C285.05,94.5,285.64,94,285.22,93.05Z" transform="translate(-22.86 -43.47)"/><path class="cls-4" d="M358.89,49.43A2.49,2.49,0,0,0,356,48.2c-.91.17-2.06,1.22-2.91,1.59A15.31,15.31,0,0,0,355,47.54a3.43,3.43,0,0,0,.66-2.16,2.09,2.09,0,0,0-1.24-1.8,2.18,2.18,0,0,0-2.24.59,4,4,0,0,0-1,2.19c-.13.8-.11,1.62-.16,2.44a9.92,9.92,0,0,0-.87-3.23A2.92,2.92,0,0,0,348,43.79c-2.31-.44-2.74,2.49-2,3.88.5,1,1.6,1.34,2.43,2.07a5.5,5.5,0,0,0-3.05-.54,2.49,2.49,0,0,0-2.12,2,2.26,2.26,0,0,0,1.18,2.09,3.38,3.38,0,0,0,2.46.24,6.63,6.63,0,0,0,2.24-1.15,7.89,7.89,0,0,0-1.91,2.44,2.7,2.7,0,0,0,.36,2.93,2.42,2.42,0,0,0,1.31.66,2.21,2.21,0,0,0,1.65-.25,2.66,2.66,0,0,0,.92-1.36,14.19,14.19,0,0,0,.63-3.67c.47,1.26.45,2.33,1.37,3.31a2.59,2.59,0,0,0,2.56.89,2.33,2.33,0,0,0,1.31-2.74,3.06,3.06,0,0,0-1.4-1.76,8.11,8.11,0,0,0-2.14-.85c.91,0,1.8.26,2.71.25a2.72,2.72,0,0,0,2.34-1.11A1.91,1.91,0,0,0,358.89,49.43Z" transform="translate(-22.86 -43.47)"/><path class="cls-5" d="M352.2,50.45c-.53-.51-1.48-.92-1.93-.67a.74.74,0,0,0-.21,1,1.83,1.83,0,0,0,1.69.82C352.51,51.56,352.78,51,352.2,50.45Z" transform="translate(-22.86 -43.47)"/><path class="cls-4" d="M135.81,390.88a3.17,3.17,0,0,0-2.78-2.83c-1.15-.24-3,.44-4.18.48a19.75,19.75,0,0,0,3.32-1.73,4.33,4.33,0,0,0,1.83-2.22,2.68,2.68,0,0,0-.6-2.71,2.76,2.76,0,0,0-2.91-.39,5,5,0,0,0-2.22,2.1c-.54.88-.91,1.85-1.36,2.78a13,13,0,0,0,.54-4.2,3.76,3.76,0,0,0-1.76-3.16c-2.5-1.64-4.41,1.61-4.23,3.59.13,1.39,1.24,2.35,1.87,3.6a7,7,0,0,0-3.33-2.11,3.17,3.17,0,0,0-3.46,1.36,2.85,2.85,0,0,0,.38,3,4.26,4.26,0,0,0,2.77,1.47,8.39,8.39,0,0,0,3.19-.28,10,10,0,0,0-3.43,2,3.44,3.44,0,0,0-1,3.61,3.2,3.2,0,0,0,1.22,1.41,2.77,2.77,0,0,0,2,.49,3.33,3.33,0,0,0,1.74-1.14,18.26,18.26,0,0,0,2.51-4c0,1.7-.59,2.94,0,4.54a3.28,3.28,0,0,0,2.58,2.27,3,3,0,0,0,2.86-2.58,3.89,3.89,0,0,0-.8-2.74,10.32,10.32,0,0,0-2.1-2c1,.47,2,1.16,3,1.58a3.42,3.42,0,0,0,3.29-.18A2.41,2.41,0,0,0,135.81,390.88Z" transform="translate(-22.86 -43.47)"/><path class="cls-5" d="M127.46,388.86c-.38-.86-1.3-1.79-1.94-1.72a1,1,0,0,0-.73,1.05,2.31,2.31,0,0,0,1.59,1.78C127.29,390.31,127.87,389.8,127.46,388.86Z" transform="translate(-22.86 -43.47)"/><path class="cls-4" d="M718.23,316a3.18,3.18,0,0,0-2.78-2.82c-1.16-.24-3,.44-4.19.47a19.45,19.45,0,0,0,3.33-1.72,4.3,4.3,0,0,0,1.82-2.22,2.66,2.66,0,0,0-.59-2.71,2.76,2.76,0,0,0-2.91-.39,5,5,0,0,0-2.22,2.1c-.54.88-.92,1.85-1.37,2.78a12.83,12.83,0,0,0,.54-4.21,3.72,3.72,0,0,0-1.76-3.15c-2.5-1.64-4.41,1.61-4.23,3.58.13,1.4,1.24,2.36,1.87,3.61a7,7,0,0,0-3.33-2.11,3.18,3.18,0,0,0-3.46,1.35,2.89,2.89,0,0,0,.38,3,4.29,4.29,0,0,0,2.78,1.47,8.63,8.63,0,0,0,3.19-.28,10.13,10.13,0,0,0-3.43,1.95,3.44,3.44,0,0,0-1,3.62,3.23,3.23,0,0,0,1.23,1.41,2.79,2.79,0,0,0,2,.49,3.37,3.37,0,0,0,1.74-1.15,18,18,0,0,0,2.51-4c0,1.71-.59,2.95,0,4.55a3.31,3.31,0,0,0,2.58,2.27,3,3,0,0,0,2.87-2.58,4,4,0,0,0-.81-2.74,10.11,10.11,0,0,0-2.1-2c1,.48,2,1.17,3.06,1.59a3.42,3.42,0,0,0,3.29-.18A2.45,2.45,0,0,0,718.23,316Z" transform="translate(-22.86 -43.47)"/><path class="cls-5" d="M709.87,314c-.38-.86-1.3-1.79-1.94-1.72a1,1,0,0,0-.73,1.05,2.32,2.32,0,0,0,1.6,1.78C709.7,315.45,710.29,314.93,709.87,314Z" transform="translate(-22.86 -43.47)"/><path class="cls-6" d="M95.44,243.19a2.91,2.91,0,1,1-1.79-3.71A2.91,2.91,0,0,1,95.44,243.19Z" transform="translate(-22.86 -43.47)"/><path class="cls-6" d="M92.52,407.53a2.91,2.91,0,1,1-1.78-3.71A2.91,2.91,0,0,1,92.52,407.53Z" transform="translate(-22.86 -43.47)"/><path class="cls-6" d="M113,362.21a2.91,2.91,0,1,1-1.78-3.71A2.91,2.91,0,0,1,113,362.21Z" transform="translate(-22.86 -43.47)"/><path class="cls-6" d="M627.7,356.86a2.91,2.91,0,1,1-1.78-3.71A2.91,2.91,0,0,1,627.7,356.86Z" transform="translate(-22.86 -43.47)"/><path class="cls-6" d="M477.69,73.1a2.91,2.91,0,1,1-1.78-3.71A2.91,2.91,0,0,1,477.69,73.1Z" transform="translate(-22.86 -43.47)"/><path class="cls-6" d="M636,101.9a2.91,2.91,0,1,1-1.79-3.71A2.91,2.91,0,0,1,636,101.9Z" transform="translate(-22.86 -43.47)"/><path class="cls-1" d="M280.47,209.87a2.91,2.91,0,1,1-1.78-3.71A2.92,2.92,0,0,1,280.47,209.87Z" transform="translate(-22.86 -43.47)"/><path class="cls-4" d="M655.58,378.26a2.91,2.91,0,1,1-1.78-3.71A2.91,2.91,0,0,1,655.58,378.26Z" transform="translate(-22.86 -43.47)"/><path class="cls-4" d="M628.7,81.8a2.91,2.91,0,1,1-1.78-3.71A2.92,2.92,0,0,1,628.7,81.8Z" transform="translate(-22.86 -43.47)"/><path class="cls-4" d="M145.7,420.52a2.91,2.91,0,1,1-1.79-3.71A2.92,2.92,0,0,1,145.7,420.52Z" transform="translate(-22.86 -43.47)"/><circle class="cls-6" cx="124.82" cy="98.25" r="7.53"/><circle class="cls-6" cx="580.21" cy="94.8" r="7.53"/><circle class="cls-4" cx="473.69" cy="176.03" r="7.53"/><path class="cls-1" d="M282,58.07c-5.29,2.48-5,2.24-7.53,7.53-2.48-5.29-2.24-5-7.53-7.53,5.29-2.48,5.05-2.24,7.53-7.52C276.91,55.83,276.67,55.59,282,58.07Z" transform="translate(-22.86 -43.47)"/><path class="cls-7" d="M347.4,239.64s15.75,22.44,47.41,22.44,53.06-21.33,52.86-22.44S452.31,137,452.31,137s-33.83-13.17-60.93-13.17-54,27.67-54,27.67Z" transform="translate(-22.86 -43.47)"/><path class="cls-8" d="M372.9,131.61s8.82,30.07,25.51,30.07c12.8,0,23.08-26.6,23.08-26.6" transform="translate(-22.86 -43.47)"/><path d="M380.29,147.41c0-.35.3-.73.48-1s.42-.61.62-.92c.43-.64.86-1.26,1.31-1.88.12-.17-.15-.38-.29-.22a24.84,24.84,0,0,0-1.55,2c-.24.34-.46.7-.67,1.06a1.29,1.29,0,0,0-.23,1.05c.06.23.36.13.33-.09Z" transform="translate(-22.86 -43.47)"/><path d="M386.68,156.16l0,0,.17,0s.3-.65.33-.7c.1-.26.21-.51.32-.77.22-.53.46-1.06.72-1.57.5-1,1.07-2,1.65-3,.16-.27-.22-.47-.4-.24a17.89,17.89,0,0,0-2,3.39,17.25,17.25,0,0,0-.68,1.73,5.29,5.29,0,0,0-.28,1c0,.16,0,.32.13.41a.15.15,0,0,0,.19-.06l0,0c.09-.12-.08-.24-.19-.19Z" transform="translate(-22.86 -43.47)"/><path d="M404.63,148A16.69,16.69,0,0,0,406,149.5c.48.54.93,1.1,1.38,1.67s.86,1.15,1.25,1.74c.21.31.41.62.6.94a4,4,0,0,0,.58.87.21.21,0,0,0,.35-.21,2.82,2.82,0,0,0-.49-.92q-.29-.48-.6-.93c-.4-.6-.82-1.19-1.27-1.76s-.91-1.11-1.4-1.63a8.35,8.35,0,0,0-1.6-1.49.12.12,0,0,0-.17.17Z" transform="translate(-22.86 -43.47)"/><path d="M410.58,145.28c.08.17.33.31.47.43s.35.3.51.46a8.91,8.91,0,0,1,.93,1c.29.35.57.7.84,1.06l.4.57a1.5,1.5,0,0,0,.49.51c.12.06.32,0,.3-.17a1.27,1.27,0,0,0-.3-.63l-.44-.58c-.29-.39-.59-.77-.91-1.13a10.89,10.89,0,0,0-1-1,5,5,0,0,0-.53-.41,1.27,1.27,0,0,0-.61-.31.12.12,0,0,0-.11.19Z" transform="translate(-22.86 -43.47)"/><path d="M412.11,134.16a18.22,18.22,0,0,1,3.45,2.86,20.4,20.4,0,0,1,2.31,3.43.24.24,0,0,0,.43-.18c-.89-2.93-3.46-5-6-6.41a.18.18,0,0,0-.18.3Z" transform="translate(-22.86 -43.47)"/><path class="cls-9" d="M257.12,167.44s-40.09,21-41.42,23.68c-1,2.16,9-.32,9-.32S205.4,202,206.14,204.18c1.08,3.16,17.14-6.33,17.14-6.33s-15.41,10.49-14.68,13,18.52-7.6,18.52-7.6S211.27,213.44,212.85,216c1.08,1.73,17.79-8.21,17.79-8.21s-12.79,8.64-11.4,10.38,34.71-19.07,58.07-32" transform="translate(-22.86 -43.47)"/><path class="cls-8" d="M224.68,190.8a21,21,0,0,0,10.21-1.93" transform="translate(-22.86 -43.47)"/><path class="cls-8" d="M231.37,205.81a58,58,0,0,1,7.3-10.32" transform="translate(-22.86 -43.47)"/><path class="cls-10" d="M371,138.16c.39-10.6,13.23-15.45,13.23-15.45-30.07-2.49-59.29,5.92-87.95,18.87-19.93,9-36.36,16.23-54.39,27.67l8.58,36.56c19.9-8.16,48.77-14.17,80.12-24.39-1.2,15.16-2.78,42.58,5.64,66.82,13.71,21.06,46.29,27.48,46.29,27.48s-3.63-91.89-4.53-99.38C375.08,152.15,370.63,148.77,371,138.16Z" transform="translate(-22.86 -43.47)"/><path class="cls-11" d="M376,274s-3.49-89.07-4.67-96.4c-3.83-23.67-10.9-27.84-10.39-38.22" transform="translate(-22.86 -43.47)"/><path class="cls-12" d="M352.93,141.66c-.53,1.37,1.53,6.33,5.82,8.14s18.29,19.74,18.32,19.78c-2.85-18.18-6.4-21.89-6.05-31.42.18-4.91,7.29-11.13,10.3-13.66L379.23,123C365.15,123.64,353.47,140.29,352.93,141.66Z" transform="translate(-22.86 -43.47)"/><path class="cls-12" d="M376,172.53a1.56,1.56,0,1,1-1.56-1.55A1.56,1.56,0,0,1,376,172.53Z" transform="translate(-22.86 -43.47)"/><path class="cls-12" d="M377.53,199.05A1.56,1.56,0,1,1,376,197.5,1.55,1.55,0,0,1,377.53,199.05Z" transform="translate(-22.86 -43.47)"/><path class="cls-12" d="M379.09,222a1.56,1.56,0,1,1-1.56-1.54A1.55,1.55,0,0,1,379.09,222Z" transform="translate(-22.86 -43.47)"/><ellipse class="cls-12" cx="354.67" cy="203" rx="1.56" ry="1.55"/><line class="cls-8" x1="307.76" y1="137.95" x2="318.87" y2="135.35"/><line class="cls-8" x1="232.9" y1="160.17" x2="224.81" y2="122.17"/><path class="cls-8" d="M336.29,230.44A57.58,57.58,0,0,0,351,215.66" transform="translate(-22.86 -43.47)"/><path class="cls-9" d="M534,167.77s40,21.11,41.35,23.85c1,2.17-9-.33-9-.33s19.26,11.31,18.52,13.48c-1.09,3.18-17.11-6.38-17.11-6.38s15.38,10.56,14.65,13.05S564,203.78,564,203.78s15.82,10.31,14.25,12.84c-1.08,1.74-17.76-8.26-17.76-8.26s12.76,8.7,11.38,10.45-34.66-19.21-58-32.23" transform="translate(-22.86 -43.47)"/><path class="cls-8" d="M566.38,191.29a20.72,20.72,0,0,1-10.19-1.94" transform="translate(-22.86 -43.47)"/><path class="cls-8" d="M559.7,206.41a58,58,0,0,0-7.28-10.4" transform="translate(-22.86 -43.47)"/><path class="cls-10" d="M420.28,138.28c-.38-10.68-13.2-15.57-13.2-15.57,30-2.51,57.33,9.3,85.94,22.35A421.39,421.39,0,0,1,547.43,175l-4.09,42.87c-19.86-8.22-51.41-24.26-82.71-34.56,1.2,15.27,2.77,41.45-5.63,65.86-13.69,21.22-46.21,27.69-46.21,27.69s3.62-92.56,4.52-100.1C416.24,152.37,420.67,149,420.28,138.28Z" transform="translate(-22.86 -43.47)"/><path class="cls-11" d="M415.35,275.11S418.83,185.4,420,178c3.82-23.84,10.88-28,10.37-38.49" transform="translate(-22.86 -43.47)"/><path class="cls-12" d="M438.34,141.8c.54,1.38-1.52,6.38-5.81,8.19s-18.26,19.89-18.28,19.93c2.84-18.31,6.38-22,6-31.64-.18-4.95-3-8.66-6-11.21v-3.28C428.3,124.48,437.81,140.42,438.34,141.8Z" transform="translate(-22.86 -43.47)"/><line class="cls-8" x1="437.77" y1="139.82" x2="424.78" y2="135.28"/><line class="cls-8" x1="512.5" y1="160.76" x2="518.82" y2="127.87"/><path class="cls-8" d="M455,237.8A73.83,73.83,0,0,1,438.36,221" transform="translate(-22.86 -43.47)"/><line class="cls-11" x1="388.3" y1="203.89" x2="391.39" y2="204.8"/><line class="cls-11" x1="389.84" y1="178.77" x2="392.93" y2="179.69"/><line class="cls-11" x1="391.39" y1="153.66" x2="394.48" y2="154.57"/><line class="cls-11" x1="392.93" y1="128.55" x2="396.02" y2="129.46"/><path class="cls-13" d="M258.45,172.45c25.87-21.53,65.8-42,115.3-50.18-22.37-4.39-50.73-4.89-73.23-3.87s-53.16,5-71.06,15.56" transform="translate(-22.86 -43.47)"/><path class="cls-14" d="M255.7,173.94l30.46-18.28c-.13-4.81-.43-9.08-4.15-16.55s-9.56-14-17-17.75c0,0-43.12,5.13-68.74,16.92" transform="translate(-22.86 -43.47)"/><path class="cls-15" d="M279.45,159.69c0-6.51-.94-10.34-4.66-18.35s-9.57-15-17-19" transform="translate(-22.86 -43.47)"/><path class="cls-14" d="M259.23,154.6c.14,20.53,17.82,49.8-3.59,64,0,0-14.29,31.53-18.21,62.2-7.44,16.92-15.74,18.86-37.73,14.91-37.31-6.69-51.93-34.27-51.93-34.27S144,179.21,185.54,147.72" transform="translate(-22.86 -43.47)"/><path class="cls-13" d="M134.73,193.49c-.78,2.25-4.84,10.08-7.82,20-10,33.1-11.62,68.07-6.65,97.86l26.25,11.91c-.72-27.3.41-46.85,10-80.11,1.48-5.11,10.28-25.6,12.29-31.48" transform="translate(-22.86 -43.47)"/><path class="cls-14" d="M180.59,199.05c-5.47,9.3-15.84,39.86-15.84,39.86-11.26,0-34.57-5.39-41.28-16.08,6.95-37.22,21.81-56.27,40-70.46,18.79-14.7,33.42-15.89,45.76-14" transform="translate(-22.86 -43.47)"/><path class="cls-15" d="M234.31,156.74a41.74,41.74,0,0,0-10.74-27.62" transform="translate(-22.86 -43.47)"/><path class="cls-15" d="M176,144.52c.7,12.22,9.08,23.63,21.22,28.37,8.28,3.24,20,4,28.2,0A16.11,16.11,0,0,0,234.31,161" transform="translate(-22.86 -43.47)"/><path class="cls-15" d="M130.12,229.23s7.83-35.74,28-59.21c11.53-13.39,29.65-23.1,29.65-23.1" transform="translate(-22.86 -43.47)"/><path class="cls-15" d="M230.19,137c12.05-6,27.52-10.84,40.94-12.06" transform="translate(-22.86 -43.47)"/><path class="cls-16" d="M247.5,93.42c2.84,2.08,3.67,6.06,3.88,9.67s0,7.43,1.62,10.64a19.5,19.5,0,0,0,5.2,5.81,21.12,21.12,0,0,1,5.29,5.74c1.25,2.32,1.54,5.43,0,7.56-1.31,1.81-3.54,2.52-5.33,3.8a33,33,0,0,0-5,4.91,22.06,22.06,0,0,1-14.75,7.22,21.82,21.82,0,0,1-15.5-5.22c-1.66-1.43-3.24-3.57-2.64-5.73" transform="translate(-22.86 -43.47)"/><path class="cls-16" d="M250.92,97.92c3.64,3.85,2,9.7,3.77,14.29s6,7.29,8.91,10.94c2.32,2.88,4.55,7.55,2.08,11-1.72,2.42-5.14,3.07-7.84,3.73a31.59,31.59,0,0,0-5.13,1.55,23.12,23.12,0,0,0-6.63,4.82c-.34.33.16.79.51.51a30.85,30.85,0,0,1,6.28-4.43,25.91,25.91,0,0,1,4.87-1.51c2.85-.7,6.25-1.36,8.27-3.68,2.59-3,1.63-7.43-.26-10.49-2.62-4.24-7.11-7-9.58-11.29-2.77-4.86-.68-11.58-5-15.7-.15-.14-.37.08-.23.24Z" transform="translate(-22.86 -43.47)"/><path class="cls-13" d="M230.51,138.58l-4.95,12.27s2.9,10.58-3,14.48c-8.73,5.75-22.82,1.94-30.33-5.11s-7.95-16.85-7.95-16.85,15.38-27.18,15.17-28.06" transform="translate(-22.86 -43.47)"/><path d="M207.61,111.29c.09.38-2.51,3.22-5.54,6.38.33,4.73,2.09,9.22,3,13.44,1.24,5.68,7.31,11.25,13.39,14.38,4.57,2.35,6.12,2.88,7.88,3.37l5.55-11.1Z" transform="translate(-22.86 -43.47)"/><path class="cls-13" d="M244.21,133.21l0-.09c3.35-7.08,5-19.13,4.87-26.9-.32-14.65-14.63-23.45-31.26-22.09-10.21.84-17.5,8.52-18.69,18.56-.85,7.21-.14,16.23,2.82,22.93,2.81,6.37,9.66,12,15.78,15C227.89,145.69,239.05,144,244.21,133.21Z" transform="translate(-22.86 -43.47)"/><path class="cls-16" d="M249.14,110.28c-.15-7-1.87-11.28-5.9-15.71a11.39,11.39,0,0,1-8.93-1.71,9.58,9.58,0,0,1-10.16,2.44c-1.12-.42-2.34-1.06-3.44-.59a4.93,4.93,0,0,0-1.28,1,8,8,0,0,1-7.2,1.81,2.6,2.6,0,0,0-1.62-.12,2.3,2.3,0,0,0-1,1c-5.49,8.74-10.55,21.88-8.15,32.31.56,2.47,1.57,4.82,2.06,7.3a12.4,12.4,0,0,1-1.43,9.29c-1.8,2.68-5.34,4.28-8.38,3.23-4.74-1.64-6-8.26-10.46-10.51-2-1-4.25-1-6.42-1.26a18.17,18.17,0,0,1-9.42-4c-5.76-4.92-.93-11.91,1.93-16.89a16.24,16.24,0,0,0,2.17-5.81c.28-2.07-.29-4.09-.06-6.18.64-5.88,4.2-9.06,9.45-11.65,3-1.48,7-4.62,8.64-7.49,2.61-4.56,6.08-9.2,11.26-10.53a17.06,17.06,0,0,1-4.25-1.74c-2.63-1.45-3.51-5.4-3.31-8.39a15.25,15.25,0,0,1,1.88-6.54,12.77,12.77,0,0,1,16-4.91c5.52,2.66,9.08,11.38,4,17,10.73-1.92,21.19.94,28.56,7.78a28.48,28.48,0,0,1,4.9,6,27.47,27.47,0,0,1,3.91,15.14A16.22,16.22,0,0,1,249.14,110.28Z" transform="translate(-22.86 -43.47)"/><path class="cls-16" d="M199.7,76.93c-4.44.54-7.22,4.37-9.75,7.65a19,19,0,0,1-4.86,4.47c-2.59,1.65-5.29,3-8,4.52a23.48,23.48,0,0,0-7,5.39,12.64,12.64,0,0,0-2.89,7.89c-.08,3.37.63,6.73-.37,10-.92,3.08-2.77,5.81-3.37,9a8.73,8.73,0,0,0,.37,5,7.71,7.71,0,0,0,2.63,3.19c2.94,2.11,6.65,2.17,10.08,2.75.46.07.67-.61.2-.71-3-.67-6.19-.7-8.91-2.21A7.35,7.35,0,0,1,165,131.2a7,7,0,0,1-.78-4.37c.35-3.11,2.06-5.81,3.12-8.7a14.77,14.77,0,0,0,.92-4.46c.07-1.62-.08-3.24-.16-4.86a17,17,0,0,1,.3-4.78,11.16,11.16,0,0,1,1.68-3.66,19.5,19.5,0,0,1,6.5-5.57c4.43-2.56,9.48-4.57,12.93-8.49,1.33-1.51,2.42-3.21,3.76-4.71a16,16,0,0,1,6.5-4.53c.07,0,.07-.15,0-.14Z" transform="translate(-22.86 -43.47)"/><path class="cls-17" d="M214.15,72.23a43.47,43.47,0,0,1,17,4.94c4.33,2.31,8.68,5.5,10.87,10a11.44,11.44,0,0,1,1.06,3.39,22.35,22.35,0,0,1-.06,3.66c0,.22.35.34.44.12.82-1.91.31-4.5-.41-6.37a16.84,16.84,0,0,0-3.86-5.75,34.66,34.66,0,0,0-14.77-8.42A42.94,42.94,0,0,0,214.15,72c-.13,0-.12.18,0,.19Z" transform="translate(-22.86 -43.47)"/><path class="cls-17" d="M211.71,73.15c3.83.62,7.34,2.71,10.41,5a40.33,40.33,0,0,1,8.94,9.22A29.74,29.74,0,0,1,234,93c.15.37.73.24.62-.17a18.45,18.45,0,0,0-2.52-5,37.25,37.25,0,0,0-4-5,36.61,36.61,0,0,0-10.36-7.86,19.26,19.26,0,0,0-6-1.92c-.13,0-.16.2,0,.21Z" transform="translate(-22.86 -43.47)"/><path class="cls-17" d="M208,74.37a37.8,37.8,0,0,1,8.12,9.12A43.63,43.63,0,0,1,221.4,94.3a.21.21,0,0,0,.4-.11A30.1,30.1,0,0,0,218,85.52a44.87,44.87,0,0,0-6.12-8,31.33,31.33,0,0,0-3.82-3.37c-.14-.1-.26.12-.13.22Z" transform="translate(-22.86 -43.47)"/><path class="cls-17" d="M204.2,75.38a29.31,29.31,0,0,0,.68,8.71,44.22,44.22,0,0,0,2.81,9.08A17.72,17.72,0,0,0,209.84,97c.23.29.74,0,.51-.3a25.06,25.06,0,0,1-3.54-7.41,47.47,47.47,0,0,1-2.15-9.33,23.77,23.77,0,0,1-.18-4.54c0-.18-.26-.17-.28,0Z" transform="translate(-22.86 -43.47)"/><path class="cls-17" d="M209.05,98c-4.19-1.27-7-5.16-7.79-9.33-.82-4.33-.24-9.49,2.52-13.05.21-.26-.14-.64-.38-.38-2.51,2.76-3.18,6.73-3.11,10.35a14.22,14.22,0,0,0,3.81,10A10.36,10.36,0,0,0,209,98.2a.13.13,0,0,0,.07-.25Z" transform="translate(-22.86 -43.47)"/><path class="cls-8" d="M235.38,113.87c1,2,2.76,6.34.63,8.41-1.37,1.32-3.19.38-4.6-.32" transform="translate(-22.86 -43.47)"/><path class="cls-8" d="M214.72,107.67a7.82,7.82,0,0,1,3.14-2.92,5.06,5.06,0,0,1,1.58-.56,7,7,0,0,1,3.57.72" transform="translate(-22.86 -43.47)"/><path class="cls-8" d="M239.23,107a4.1,4.1,0,0,1,6-1" transform="translate(-22.86 -43.47)"/><path d="M221.46,114.37a1.94,1.94,0,1,1-1.07-2.52A1.94,1.94,0,0,1,221.46,114.37Z" transform="translate(-22.86 -43.47)"/><path d="M244,115.47A1.94,1.94,0,1,1,243,113,1.94,1.94,0,0,1,244,115.47Z" transform="translate(-22.86 -43.47)"/><path class="cls-5" d="M236.33,128.89l-10-3.31s-2.19,6.21,3.11,8.38C233.83,135.76,236.33,128.89,236.33,128.89Z" transform="translate(-22.86 -43.47)"/><path class="cls-13" d="M203.46,113c-1-2.88-4.82-5.36-8-3.12s-4.05,7.28-2.51,10.84c1.18,2.74,4.56,5.27,7.67,4.86,1.33-.17,1.71-1.19,2.54-2.25" transform="translate(-22.86 -43.47)"/><path class="cls-8" d="M195.66,113.68l7,5.85" transform="translate(-22.86 -43.47)"/><path class="cls-8" d="M196.23,124.42a6,6,0,0,0,3.72.91,4.32,4.32,0,0,0,3.21-2" transform="translate(-22.86 -43.47)"/><path class="cls-18" d="M246.54,125.69a4.39,4.39,0,1,1-2.85-5.52A4.39,4.39,0,0,1,246.54,125.69Z" transform="translate(-22.86 -43.47)"/><path class="cls-18" d="M224.75,126a5.35,5.35,0,1,1-3.47-6.72A5.33,5.33,0,0,1,224.75,126Z" transform="translate(-22.86 -43.47)"/><path class="cls-17" d="M246.7,98.92c2.74.08,3.74-2.82,3.93-5.1.36-4.22-1.92-8.29-4.38-11.54-.18-.23-.57,0-.41.24,2.06,3.31,4.22,6.9,4.12,10.93-.06,2-.76,4.89-3.26,5a.26.26,0,0,0,0,.51Z" transform="translate(-22.86 -43.47)"/><path class="cls-17" d="M200.66,55a11.36,11.36,0,0,0-1.35,6.76A13.5,13.5,0,0,0,201.36,68a11.92,11.92,0,0,0,4.64,3.7c1.85.89,4.31,1.94,6.38,1.26a.27.27,0,0,0-.07-.53A15.09,15.09,0,0,1,209.1,72a17.14,17.14,0,0,1-2.86-1.12A10.81,10.81,0,0,1,202,67.38a14,14,0,0,1-2-5.74,10.4,10.4,0,0,1,0-3.52c.2-1,.59-2,.88-3a.13.13,0,0,0-.23-.1Z" transform="translate(-22.86 -43.47)"/><path class="cls-17" d="M199.14,58a15.35,15.35,0,0,0-1.57,6,10.11,10.11,0,0,0,1.15,4.82,10.7,10.7,0,0,0,7.77,5.75c1.86.26,4.11,0,5.44-1.43a.28.28,0,0,0-.34-.44,7.74,7.74,0,0,1-6.11.79,10,10,0,0,1-4.73-3.08,10.34,10.34,0,0,1-2.41-5.09,14.73,14.73,0,0,1,1-7.24c0-.12-.16-.21-.22-.09Z" transform="translate(-22.86 -43.47)"/><path class="cls-17" d="M208.25,55.53A15.71,15.71,0,0,1,213,63.2c.85,2.88,1.3,6.5-.54,9.1-.2.28.26.64.48.37,2.11-2.52,1.6-6.53.72-9.44a15.45,15.45,0,0,0-5.26-7.93c-.13-.1-.31.12-.18.23Z" transform="translate(-22.86 -43.47)"/><path class="cls-19" d="M200.27,75.67c5.38.41,11.47-1.22,15.39-4.67" transform="translate(-22.86 -43.47)"/><path class="cls-15" d="M125.87,211.89s12.08,13.94,41.84,17.84" transform="translate(-22.86 -43.47)"/><line class="cls-8" x1="232.78" y1="175.15" x2="220" y2="183.06"/><line class="cls-8" x1="236.53" y1="116.52" x2="238.26" y2="129.27"/><path class="cls-8" d="M180.59,199.05c-5.47,9.3-15.84,39.86-15.84,39.86a58.91,58.91,0,0,1-6.6-.4" transform="translate(-22.86 -43.47)"/><path d="M176,210.3a35.36,35.36,0,0,0,7.91-8.55c.19-.28-.25-.53-.44-.26a52.33,52.33,0,0,1-7.69,8.6c-.15.13.07.33.22.21Z" transform="translate(-22.86 -43.47)"/><path class="cls-8" d="M316.52,107.2a177.48,177.48,0,0,1,42.56,4.14" transform="translate(-22.86 -43.47)"/><path class="cls-8" d="M310.77,98.46A186.87,186.87,0,0,1,338,100.94" transform="translate(-22.86 -43.47)"/><path class="cls-20" d="M557.87,144.31a39.44,39.44,0,0,0-21.78-.41,32.38,32.38,0,0,0-17.79,12.32c-2.48,3.54-2.59,9.57-3.19,13.77a152.48,152.48,0,0,0-1.4,16,263.28,263.28,0,0,0,1.06,32.26c1.8,21.41,5,42.76,5,64.29,0,8.8-.37,18.32,4.67,25.55,3.54,5.07,8.94,7.63,13.72,11.26,4.33,3.28,7.56,6.12,12.78,8.34,11.39,4.84,24.23,7.17,36.4,4.13,3.61-.9,7.22-2.33,9.85-5,3.22-3.24,4.54-7.86,5.71-12.28,6.68-25.13,10.83-49.69,10.56-75.64a177.87,177.87,0,0,0-6.9-46.81c-3.34-11.67-8.29-27.11-19.32-33.87" transform="translate(-22.86 -43.47)"/><path class="cls-21" d="M500.64,150.29c4.29,17,4.91,23.87,5.61,34.59,2.68,41.17,3.86,65.48,7.32,109.06a40.24,40.24,0,0,0,12.83,22.55c-3.34-23.39-5.07-54.41-5.27-86.3-.14-21.44.49-43.25,5.63-64.07,4.42-17.92,12.92-19.3,17.86-21.44,0,0-19.46-18.5-45.54-25.49" transform="translate(-22.86 -43.47)"/><path class="cls-21" d="M507,166.36c.08-1-33.19-38.37-93.12-44l-4.08-7.71c43.06-5.82,93.09,1.62,123.86,15.89" transform="translate(-22.86 -43.47)"/><line class="cls-8" x1="481.26" y1="121.34" x2="478.86" y2="111.1"/><path class="cls-13" d="M530.89,140l3,13.4s-1.56,5.79,3.86,10.79c8,7.37,19.59,5.95,28.47,0s11.25-11.45,11.25-11.45-11.15-30.44-10.78-31.3" transform="translate(-22.86 -43.47)"/><path class="cls-20" d="M574.51,139.67l-2.33-1.58.94,2.7c-6.91,9.76-35.57,14.51-41,8l.17,13.17c7.54,11.39,27.43,11.29,37.41,3.46a44.54,44.54,0,0,0,10.51-12Z" transform="translate(-22.86 -43.47)"/><path class="cls-8" d="M532.1,146.15l.17,15.8c7.54,11.39,27.43,11.29,37.41,3.46" transform="translate(-22.86 -43.47)"/><path d="M559,115.92c-.15.37,2,3.72,4.59,7.47-1.13,4.79-3.7,9.09-5.36,13.26-3.12,5.58-6.82,10.64-11.2,12.4a31.22,31.22,0,0,1-14.59.66l.29-11.16Z" transform="translate(-22.86 -43.47)"/><path class="cls-13" d="M522,144.15C518.7,140,517.74,134,517,129s-1.15-17.41.34-25.34c.58-3.09,1.74-8,3.34-10.37,6.18-9,19.09-10.3,32.42-6.95,10.31,2.59,16.48,11.69,16,22.17-.35,7.53-2.61,16.64-6.77,23-4,6.06-13.09,12.48-16.66,14.33S525.31,148.34,522,144.15Z" transform="translate(-22.86 -43.47)"/><path class="cls-8" d="M531.59,113.91c-1.34,1.9-3.9,6-2.07,8.5,1.17,1.59,3.19.93,4.76.46" transform="translate(-22.86 -43.47)"/><path d="M540.09,117.07a2,2,0,1,0,1.53-2.4A2,2,0,0,0,540.09,117.07Z" transform="translate(-22.86 -43.47)"/><path d="M518,114.23a2,2,0,1,0,1.53-2.4A2,2,0,0,0,518,114.23Z" transform="translate(-22.86 -43.47)"/><path class="cls-5" d="M527.24,129.43l10.79-1.7s1.19,6.73-4.6,8.06C528.65,136.88,527.24,129.43,527.24,129.43Z" transform="translate(-22.86 -43.47)"/><path class="cls-22" d="M517,123.93a3.68,3.68,0,1,0,3.11-4.18A3.68,3.68,0,0,0,517,123.93Z" transform="translate(-22.86 -43.47)"/><path class="cls-22" d="M540.84,128.07a4.2,4.2,0,1,0,3.55-4.76A4.2,4.2,0,0,0,540.84,128.07Z" transform="translate(-22.86 -43.47)"/><path d="M516.6,103.42c.34.63,1.43.68,2.07.82s1.42.37,2.13.54,1.43.37,2.13.59a9.75,9.75,0,0,0,1,.24,2.26,2.26,0,0,0,.93,0,4.07,4.07,0,0,0,.5-.13.86.86,0,0,0,.38-1.43,2.72,2.72,0,0,0-1.16-.84,7.1,7.1,0,0,0-1-.32c-.75-.15-1.5-.28-2.26-.39a21.89,21.89,0,0,0-2.42-.18c-.35,0-.71,0-1.06,0s-.92,0-1.17.38a.61.61,0,0,0-.09.7Z" transform="translate(-22.86 -43.47)"/><path d="M540.1,106.72a2.31,2.31,0,0,0,1.52.44c.59,0,1.18.1,1.78.17a31.08,31.08,0,0,1,3.31.49,32,32,0,0,1,3.32.92,14,14,0,0,0,3.44,1,1,1,0,0,0,.72-1.73,7.58,7.58,0,0,0-3.36-1.77,19.87,19.87,0,0,0-3.57-.82,23.4,23.4,0,0,0-3.64-.29c-.63,0-1.27.1-1.89.18a2.33,2.33,0,0,0-1.63.59.59.59,0,0,0,0,.82Z" transform="translate(-22.86 -43.47)"/><path d="M570.44,93.48c5,2.18,14.65,7.25,19,10.46a1.37,1.37,0,0,0,1,.36,2.37,2.37,0,0,0,.68-.41c1.16-.73,2.62.36,4,.34a3.14,3.14,0,0,0,2.77-2.44,6,6,0,0,0-.52-3.86c-1.83-4.19-6.06-6.94-10.47-8.13s-9.06-1-13.63-.88" transform="translate(-22.86 -43.47)"/><path class="cls-23" d="M574.51,90.69a36.68,36.68,0,0,1,17,12.55" transform="translate(-22.86 -43.47)"/><path class="cls-23" d="M576.65,91.51c7.29,1.75,14.75,3.71,20.8,8.06" transform="translate(-22.86 -43.47)"/><path class="cls-24" d="M555.18,96.37c7,32.73,10.27,25.21,15.4,37.2,1.56-7.69,4.92-16.14,6.21-23.88a25.37,25.37,0,0,0,.09-9.07,14,14,0,0,0-4.22-7.85c-2.25-2-5.26-3-7.24-5.27" transform="translate(-22.86 -43.47)"/><path d="M521,86.39a8.57,8.57,0,0,0-2.42,5.41,2.38,2.38,0,0,0,.2,1.32,2.23,2.23,0,0,0,.94.83,5.76,5.76,0,0,0,5.52-.07,4.43,4.43,0,0,1,1.31-.64,3.34,3.34,0,0,1,1.61.24c3.77,1.21,8.07,2,11.56.16a8.12,8.12,0,0,0,9.3.83c.19,1.91,2.16,3.06,3.89,3.9a6.21,6.21,0,0,0,2.79.82,6.72,6.72,0,0,0,2.8-1,30.92,30.92,0,0,1,8.2-2.79A19.46,19.46,0,0,1,571,95a10.38,10.38,0,0,1,2.06.32c.48.11,1.68.7,2.14.57,1.33-2.26.52-4.71-.25-6.16a10.22,10.22,0,0,0-4.77-4.53,4.21,4.21,0,0,1-1.45-.85A4.26,4.26,0,0,1,568,83c-1.59-4-5.29-5.89-9.19-7.05a20,20,0,0,0-8.24-1.06c-1.07.14-2.12.44-3.19.55-2.56.27-5.12-.53-7.7-.55-4.14,0-7.94,1.92-11.31,4.16a10.29,10.29,0,0,0-3.55,3.48C523.85,84.17,522.34,85.08,521,86.39Z" transform="translate(-22.86 -43.47)"/><path class="cls-24" d="M550.56,93.39a21.92,21.92,0,0,1,4.22-3.89,6.92,6.92,0,0,1,2.91-1,14.62,14.62,0,0,1,3.3.21,13,13,0,0,0,3.3.11c1.07-.14,2.12-.42,3.2-.5a13.46,13.46,0,0,1,6.5,1.14c.46.21.87-.47.4-.68a14.18,14.18,0,0,0-6.58-1.27,32.85,32.85,0,0,0-3.4.52,13.24,13.24,0,0,1-3.77-.1,8.81,8.81,0,0,0-6.18,1,15.76,15.76,0,0,0-4.11,4.27c-.09.13.11.28.21.17Z" transform="translate(-22.86 -43.47)"/><path class="cls-24" d="M567.34,84a69.82,69.82,0,0,0-6.82-2c-1.91-.4-4-.93-5.85,0a4.9,4.9,0,0,1-1.62.68,10.46,10.46,0,0,1-1.77,0,9.5,9.5,0,0,0-2.95.34,12,12,0,0,0-5,3,20.12,20.12,0,0,0-3.89,5.72c-.21.43.44.82.65.38,1.71-3.54,4.23-7,8.13-8.27a8.64,8.64,0,0,1,2.81-.43,7.17,7.17,0,0,0,3-.21c.38-.17.72-.41,1.09-.59a4.25,4.25,0,0,1,1.72-.4,12.92,12.92,0,0,1,3,.36c2.46.47,5,1,7.4,1.63a.13.13,0,1,0,.07-.24Z" transform="translate(-22.86 -43.47)"/><path class="cls-24" d="M547.47,75.78a21.21,21.21,0,0,0-5.32.68,10.57,10.57,0,0,0-2.34,1.08,7.18,7.18,0,0,1-2.57,1c-3.31.62-5.76,3-7.3,5.93a27.7,27.7,0,0,0-2.29,6.06.36.36,0,0,0,.7.19A40.73,40.73,0,0,1,531,84.19,10.72,10.72,0,0,1,535.23,80a17.55,17.55,0,0,1,3-.92,13.42,13.42,0,0,0,2.58-1.4,16.5,16.5,0,0,1,6.64-1.6c.17,0,.18-.28,0-.27Z" transform="translate(-22.86 -43.47)"/><path class="cls-13" d="M556.41,120.88C558,118,562.54,116,565.54,119s3.06,8.53.77,12.07c-1.75,2.73-5.83,4.85-9.09,3.86-1.4-.42-1.62-1.59-2.33-2.87" transform="translate(-22.86 -43.47)"/><path class="cls-25" d="M560.42,131.09a1.51,1.51,0,1,1-1.51-1.51A1.51,1.51,0,0,1,560.42,131.09Z" transform="translate(-22.86 -43.47)"/><path class="cls-8" d="M564.67,123l-8.51,5" transform="translate(-22.86 -43.47)"/><path class="cls-8" d="M567.86,128.5c-4.7,6.64-8.5,6.58-9.86,6.19a4.68,4.68,0,0,1-3.1-2.68" transform="translate(-22.86 -43.47)"/><path class="cls-8" d="M556.85,120.22a7.12,7.12,0,0,1,4.16-2.63" transform="translate(-22.86 -43.47)"/><path class="cls-21" d="M616.14,207.28c6.4,39.27-12.81,118.72-11.87,119.84s-19.32,8.35-31.7,10-25.87-8.91-25.87-8.91c-.28-21.48.63-87.52,4-108.74s3.71-32.46,14.85-50.82c2-3.26,9.79-15.17,13.38-18.38" transform="translate(-22.86 -43.47)"/><path class="cls-21" d="M578.91,150.29c30.17,15.22,45,50.54,48.17,87.71,3,35.38-2.6,72.3-13.44,100.49a86.21,86.21,0,0,0-11.48-9.89,57,57,0,0,0-13.59-7.51S592.82,246.25,583,214" transform="translate(-22.86 -43.47)"/><path class="cls-8" d="M583,214c13.39,51.61,5.53,107.09,5.53,107.09" transform="translate(-22.86 -43.47)"/><line class="cls-8" x1="556.06" y1="176.03" x2="562.94" y2="182.67"/><path class="cls-8" d="M638.78,231.49c2.31,10,2.84,27.15-1.12,40" transform="translate(-22.86 -43.47)"/><path class="cls-8" d="M641.92,218.74c2.36,6.52,3.16,17.95,2.84,25.49" transform="translate(-22.86 -43.47)"/><line class="cls-8" x1="460.44" y1="23.69" x2="478.86" y2="38.2"/><line class="cls-8" x1="454.4" y1="43.26" x2="476.35" y2="48.91"/><line class="cls-8" x1="454.4" y1="58.35" x2="475.62" y2="58.31"/><path class="cls-26" d="M377.16,108.11c-1.11-2.47-4.1-5.47-7.08-4.06s-3.63,5.38-2,8.46c1.25,2.37,4.53,5.8,7.74,5.34a5.12,5.12,0,0,0,2.81-1.72" transform="translate(-22.86 -43.47)"/><path class="cls-8" d="M370.27,107.52q3.48,2.81,7,5.62" transform="translate(-22.86 -43.47)"/><path class="cls-26" d="M414.82,107.62c1-2.5,3.93-5.58,6.95-4.26s3.79,5.25,2.26,8.38c-1.17,2.41-4.35,6-7.57,5.58a5.08,5.08,0,0,1-2.86-1.63" transform="translate(-22.86 -43.47)"/><path class="cls-8" d="M421.68,106.83l-6.77,5.82" transform="translate(-22.86 -43.47)"/><path class="cls-9" d="M379,125.66l2.07,12.18s11.32,17,17.29,17,15.79-17,15.79-17l1.6-17" transform="translate(-22.86 -43.47)"/><path d="M384.9,134.66c11.44,8.46,25.87,4.32,29.8-7.63a24.91,24.91,0,0,0,1.11-6l-36.64,1,.3,4.29C381.31,130.92,383.37,133.53,384.9,134.66Z" transform="translate(-22.86 -43.47)"/><path class="cls-9" d="M372.91,90.1s-.88,32.8,10.55,40.4,26.22,4,31.55-6.48,2.28-25.39,1.65-37.2c-.44-8.24-7.44-17.2-21.36-15.82S372.93,75.82,372.91,90.1Z" transform="translate(-22.86 -43.47)"/><path class="cls-27" d="M412.34,98.22a6.88,6.88,0,0,0-8.58,1.79" transform="translate(-22.86 -43.47)"/><path class="cls-8" d="M395.56,108c-.57,1.58-1.7,6.12,1.49,5.63a4.57,4.57,0,0,0,2-1" transform="translate(-22.86 -43.47)"/><path d="M406.34,106.38a2,2,0,1,0,.79-2.64A2,2,0,0,0,406.34,106.38Z" transform="translate(-22.86 -43.47)"/><path class="cls-27" d="M379.55,98.72a6.88,6.88,0,0,1,8.7,1.07" transform="translate(-22.86 -43.47)"/><path d="M385.75,108.25a1.95,1.95,0,1,1-3.7-1.21,1.95,1.95,0,0,1,3.7,1.21Z" transform="translate(-22.86 -43.47)"/><path class="cls-5" d="M392.19,116.93l9.4,1s-.62,7.59-5.63,6.45C390.19,123.08,392.19,116.93,392.19,116.93Z" transform="translate(-22.86 -43.47)"/><path class="cls-28" d="M414.86,114.87a4.67,4.67,0,1,1-5.08-4.24A4.68,4.68,0,0,1,414.86,114.87Z" transform="translate(-22.86 -43.47)"/><path class="cls-28" d="M387.86,117A4.52,4.52,0,1,1,383,112.9,4.53,4.53,0,0,1,387.86,117Z" transform="translate(-22.86 -43.47)"/><path class="cls-29" d="M437.29,81.91c-.85-4.24-4.72-8.26-7.42-11C424,64.73,416.6,59,407.6,60.69a3.72,3.72,0,0,1-3.17-.7c-.82-.48-2.22-1.84-3-2.42-4.21-3.2-10-2.85-14.93-1.76a36.72,36.72,0,0,0-14.3,7,78.11,78.11,0,0,0-15.75,17.3c-1.14,1.64-2.62,3.38-3.06,5.35a6.72,6.72,0,0,0,1.06,4.72c1.06,2,1.13,3.93,1.78,6s2.68,3.43,4.6,4.5A64.85,64.85,0,0,0,371,105.21a2,2,0,0,0,1.68.05,1.93,1.93,0,0,0,.66-1c1.69-4.77,2.18-9.84,4.11-14.52,2.84-6.85,7.82-13,14.88-15.66a11.3,11.3,0,0,1,6.47-.79,20.24,20.24,0,0,0,2.93.73c.77.06,1.54-.1,2.32-.06a7.42,7.42,0,0,1,4.77,2.74A29.71,29.71,0,0,1,414.69,87a50.68,50.68,0,0,1,2.73,12.15,42.61,42.61,0,0,0,.85,6.58,1.21,1.21,0,0,0,.52.84,1.23,1.23,0,0,0,1.11-.2,49.58,49.58,0,0,0,9.88-7,6.4,6.4,0,0,0,2.14-3c.23-.94,0-1.94.19-2.91.51-3.29,4.14-4.66,5.05-7.79A7.69,7.69,0,0,0,437.29,81.91Z" transform="translate(-22.86 -43.47)"/><path class="cls-30" d="M403.37,69.64c10.39-.57,19.4,6.74,24,15.59a61.19,61.19,0,0,1,3.79,9.67.35.35,0,0,0,.68-.19c-1.61-5.59-3.87-11.07-7.58-15.62a27.32,27.32,0,0,0-12.3-8.84,19,19,0,0,0-8.56-.84c-.14,0-.15.24,0,.23Z" transform="translate(-22.86 -43.47)"/><path class="cls-30" d="M405.54,66.6a19.3,19.3,0,0,1,9,.32A25.15,25.15,0,0,1,421.82,70a29.32,29.32,0,0,1,9.79,10.72,56.27,56.27,0,0,1,3.24,7.58.33.33,0,0,0,.63-.17,30.5,30.5,0,0,0-2.83-7,33.77,33.77,0,0,0-4.28-6.32,25.46,25.46,0,0,0-12.84-8.14,19.53,19.53,0,0,0-10-.19.1.1,0,0,0,.05.19Z" transform="translate(-22.86 -43.47)"/><path class="cls-30" d="M400.92,69.08c-6.39-3.43-13.9-2.52-20.28.46-7,3.26-12.31,8.86-16.91,14.89-2.82,3.7-5.35,7.61-7.8,11.55-.26.41.39.79.65.38,4.2-6.7,8.62-13.38,14.27-19,4.93-4.87,11.24-8.69,18.19-9.69a21.39,21.39,0,0,1,11.76,1.59c.14.06.26-.14.12-.21Z" transform="translate(-22.86 -43.47)"/><path class="cls-30" d="M402.61,64.39a14.44,14.44,0,0,0-9.82-4.27A22.46,22.46,0,0,0,381,63.18a58.6,58.6,0,0,0-10.37,7.31,64.1,64.1,0,0,0-8.54,8.89,55.59,55.59,0,0,0-3.9,5.61,35.34,35.34,0,0,0-3.12,6.09c-.12.34.41.55.58.24.92-1.72,1.74-3.48,2.73-5.16a56.31,56.31,0,0,1,3.22-4.88,61.45,61.45,0,0,1,7.91-8.76,66.47,66.47,0,0,1,9.67-7.44,25.73,25.73,0,0,1,11.61-4.29,14.81,14.81,0,0,1,11.56,3.82.16.16,0,0,0,.23-.22Z" transform="translate(-22.86 -43.47)"/><path class="cls-30" d="M402.32,71.67c5.32.21,9.78,3.29,13.1,7.27a37.45,37.45,0,0,1,7.34,15,44.38,44.38,0,0,1,1.26,9.8.27.27,0,0,0,.54,0,39.09,39.09,0,0,0-3.78-17.4c-2.29-4.85-5.66-9.63-10.26-12.53a14.06,14.06,0,0,0-8.2-2.3.11.11,0,1,0,0,.21Z" transform="translate(-22.86 -43.47)"/><path class="cls-29" d="M402.06,73.07a8.59,8.59,0,0,0-4,.1,15.68,15.68,0,0,0-4,1.47,26.49,26.49,0,0,0-6.64,5.18A72.54,72.54,0,0,0,377,93.24q-1.21,2-2.25,4.18a16.28,16.28,0,0,0-1.69,4.4c0,.32.42.38.56.15a33,33,0,0,0,1.65-3.75c.56-1.2,1.18-2.39,1.83-3.54a62.31,62.31,0,0,1,4.48-6.76c1.63-2.17,3.39-4.24,5.22-6.24a32.58,32.58,0,0,1,6.33-5.63,17,17,0,0,1,4.18-2,14.62,14.62,0,0,1,2.36-.52c.8-.1,1.6-.08,2.39-.17a.17.17,0,0,0,.05-.33Z" transform="translate(-22.86 -43.47)"/><path class="cls-31" d="M428.88,216.47c22.2,8.11,45.84,24.88,56.78,45,12.38,22.77,11.81,54,12.23,79.66,0,0,2.19,39.2-2.61,43.58s-55.23,17.82-85.32-.15-34.29-52.89-34.29-52.89L360.88,225.12" transform="translate(-22.86 -43.47)"/><line class="cls-8" x1="388.49" y1="212.69" x2="390.74" y2="249.97"/><path d="M418.17,264.94a1.72,1.72,0,0,1-2.25.57c-.95-.38-1.48-1.24-1.18-1.93A1.72,1.72,0,0,1,417,263C418,263.39,418.47,264.25,418.17,264.94Z" transform="translate(-22.86 -43.47)"/><path d="M418.6,280.16a1.72,1.72,0,0,1-2.26.57c-.95-.37-1.47-1.24-1.17-1.93a1.73,1.73,0,0,1,2.26-.57C418.37,278.61,418.9,279.47,418.6,280.16Z" transform="translate(-22.86 -43.47)"/><path class="cls-8" d="M406.32,226.14c-3.69,5.3-5.59,12-4.41,18.29,1.12,6.06,5.64,15.31,24.46,13.69" transform="translate(-22.86 -43.47)"/><path class="cls-8" d="M430.09,256.72a40.68,40.68,0,0,0,4.47-1.41c11.26-4.25,20.44-13.34,20.86-24.89" transform="translate(-22.86 -43.47)"/><path class="cls-31" d="M431.47,218.62c-40-31.43-84.79-29.38-110.19-25.19-17.45,2.88-33.83,13.8-42.85,29.22-5.28,9-6.86,18.88-6.59,29.21l39.69-7.47s25.06-21.71,55.74-6.59" transform="translate(-22.86 -43.47)"/><path class="cls-32" d="M404.76,220.42l1.74,13s-2.34,9,2.91,13.95c6.44,6,17.31,4,26.69-.86a28.47,28.47,0,0,0,9.35-7.93,12.18,12.18,0,0,0,2.08-10.75c-2.1-7.62-5.8-21.29-5.48-21.86" transform="translate(-22.86 -43.47)"/><path d="M434.89,200.05c-.19.33,1.67,3.7,3.87,7.49-1.56,4.44-4.51,8.3-6.55,12.11-2.74,5.12-10.29,8.93-17.2,10.4a40.7,40.7,0,0,1-8.79,1.25l-2.65-12Z" transform="translate(-22.86 -43.47)"/><path class="cls-32" d="M392.43,211.85l0-.1c-1.5-7.62,0-19.56,2.18-27,4.16-13.93,20.82-18.77,37.14-13.3a20.05,20.05,0,0,1,13.86,22.44c-1,7.11-4.12,15.56-8.84,21.23-4.5,5.4-12.84,9.08-19.78,10.45C405.52,227.88,394.78,223.44,392.43,211.85Z" transform="translate(-22.86 -43.47)"/><path class="cls-8" d="M408.35,192.49c-1.51,1.69-4.93,8.63-3.34,11.14,1,1.61,3.1,1.16,4.69.85" transform="translate(-22.86 -43.47)"/><path class="cls-8" d="M428.71,194.8a7.71,7.71,0,0,0-2.38-3.58,5.16,5.16,0,0,0-1.45-.94,7.69,7.69,0,0,0-3.76-.2" transform="translate(-22.86 -43.47)"/><path class="cls-8" d="M404.31,188a4.23,4.23,0,0,0-2.33-2.44,4.51,4.51,0,0,0-3.46,0" transform="translate(-22.86 -43.47)"/><path d="M416,199.49a2,2,0,0,0,2.25,1.66A1.93,1.93,0,0,0,420,199a2,2,0,0,0-2.25-1.66A1.93,1.93,0,0,0,416,199.49Z" transform="translate(-22.86 -43.47)"/><path d="M394.34,194.86a2,2,0,0,0,2.25,1.66,2,2,0,0,0,1.74-2.15,2,2,0,0,0-2.25-1.66A2,2,0,0,0,394.34,194.86Z" transform="translate(-22.86 -43.47)"/><path class="cls-5" d="M402.11,210.09l10.87-.67s.57,6.49-5.31,7.24C402.82,217.28,402.11,210.09,402.11,210.09Z" transform="translate(-22.86 -43.47)"/><path class="cls-22" d="M392.43,204a3.61,3.61,0,0,0,3.86,3.32,3.51,3.51,0,1,0-3.86-3.32Z" transform="translate(-22.86 -43.47)"/><path class="cls-22" d="M415.75,210a4.12,4.12,0,0,0,4.41,3.78,4.07,4.07,0,0,0,4-4.2,4.19,4.19,0,0,0-8.37.42Z" transform="translate(-22.86 -43.47)"/><path class="cls-33" d="M431.48,156.22c-2.89-2.53-8-3.12-11.78-2.83a18.56,18.56,0,0,0-11.11,4.75,14.4,14.4,0,0,1-1.92,1.65c-1,.67-2.31.94-3.39,1.54a5.83,5.83,0,0,0-2.62,3,13.06,13.06,0,0,1-1,2.69,7.75,7.75,0,0,1-1.6,1.53,15.29,15.29,0,0,0-5.49,11.11,9.66,9.66,0,0,0,.71,3.44c.29.92.17,2,1,2.71a23.92,23.92,0,0,1,9.73-11.75,3,3,0,0,1,1.27-.52,4.36,4.36,0,0,1,2.42,1,6.69,6.69,0,0,0,6,.2,6.28,6.28,0,0,1,1.74-.72,11,11,0,0,1,2.57.39c.87.09,2-.44,1.84-1.26" transform="translate(-22.86 -43.47)"/><path class="cls-33" d="M416.83,169a4,4,0,0,1-.91-2.71,10.82,10.82,0,0,1,.51-2.86,17.31,17.31,0,0,1,2-5c2.1-3.17,7.14-4.58,10.71-5.68,4.05-1.26,8.51-1.87,12.57-.2,3.15,1.3,5.41,4.18,8.64,5.3,1.74.6,3.66.66,5.34,1.4a8.84,8.84,0,0,1,3.92,3.8,22,22,0,0,1,2.21,6.52c.87,4.12,5.81,5.94,9.18,7.89a7.61,7.61,0,0,1,3,2.58c1.39,2.53-1.36,4.16-1.25,6.59.1,2.19,3,3.08,4.62,4a8.06,8.06,0,0,1,2.65,11.11c-2.29,3.39-11.31,2.53-11.31,2.53s1.33,3.88-3.26,5.8c-3.77,1.58-8.45.06-11.56-2.52" transform="translate(-22.86 -43.47)"/><path class="cls-33" d="M419.32,163.57c-3.82,4.51-3,12.38,2.52,15.35,1.83,1,4.07,1.37,5.55,2.8,2.38,2.32,1.72,6.18,3.11,9.14a7.38,7.38,0,0,0,3.73,3.59c1.42.62,3,.81,4.46,1.32,4.8,1.68,3.47,5.86,3.58,9.68.07,2.49.45,5.17,2.25,7a7.51,7.51,0,0,0,3.6,1.89c5.11,1.19,10.45-2,13.19-6.29s3.47-9.43,4.13-14.41" transform="translate(-22.86 -43.47)"/><path class="cls-34" d="M424,166.87a15.47,15.47,0,0,1,6,.49,9.89,9.89,0,0,1,3.7,2.26c1.2,1.11,2.15,2.52,3.43,3.55s3.13,1.75,4.5,2.91c3.4,2.88.35,8.06,2.87,11.43,1.2,1.6,3.18,2.25,5,2.91a15,15,0,0,1,5.56,3.43,15.66,15.66,0,0,1,3.82,6.53,25,25,0,0,1,.76,8.52c0,.36.57.45.63.09a19.14,19.14,0,0,0-3.2-13.91,15,15,0,0,0-4.78-4.24c-1.9-1-4.13-1.42-5.95-2.62-4.15-2.74-.68-8.33-3.38-11.81-1.13-1.46-2.93-2.17-4.46-3.13a23.23,23.23,0,0,1-3.81-3.61,11.12,11.12,0,0,0-4.07-2.7,14.91,14.91,0,0,0-6.58-.36c-.16,0-.17.28,0,.26Z" transform="translate(-22.86 -43.47)"/><path class="cls-34" d="M424.12,166.71c-1.16-2.76-4.91-3.12-7.49-2.67a30.61,30.61,0,0,1-5,.82,5.63,5.63,0,0,1-2.39-.56,5.44,5.44,0,0,0-2.36-.4,13.49,13.49,0,0,0-6.91,2.5.29.29,0,0,0,.29.49c2-1,3.94-2,6.18-2.25a5.38,5.38,0,0,1,2.39.24,7.22,7.22,0,0,0,2,.63c3,.3,5.74-1.22,8.71-.93a5.57,5.57,0,0,1,4.39,2.23c.07.12.3,0,.24-.1Z" transform="translate(-22.86 -43.47)"/><path class="cls-34" d="M410.3,160.26a7.75,7.75,0,0,1,4.83.87,11.36,11.36,0,0,0,3.75.68c2.7.21,5.43-1.4,8,0,.27.15.57-.22.34-.44-2.18-2.08-5.46-.19-8-.28a13.74,13.74,0,0,1-4.32-.68,7.41,7.41,0,0,0-4.62-.37c-.11,0-.06.2.05.18Z" transform="translate(-22.86 -43.47)"/><path class="cls-34" d="M426.09,154.37a24.92,24.92,0,0,1,7.24,2.42,6.79,6.79,0,0,1,2.46,2.36,7.46,7.46,0,0,1,.87,3.8c0,.43.62.41.66,0a6.75,6.75,0,0,0-3.36-6.51,21.44,21.44,0,0,0-7.79-2.37.16.16,0,0,0-.08.3Z" transform="translate(-22.86 -43.47)"/><path class="cls-34" d="M432.06,173.48c2.56,1.31,5.23,2.87,6.71,5.43,1.6,2.77,1.52,6.15,2.64,9.11a11.26,11.26,0,0,0,5.78,6c2.71,1.42,5.61,2.47,7.9,4.57A16.35,16.35,0,0,1,460,207.5a.23.23,0,0,0,.45-.06,14,14,0,0,0-3.56-8.09c-2.09-2.42-4.79-3.8-7.63-5.15s-5.61-2.87-7-5.89-1.18-6.38-2.71-9.24-4.5-4.45-7.36-5.8c-.14-.06-.27.14-.13.21Z" transform="translate(-22.86 -43.47)"/><path class="cls-34" d="M442.08,170.38c2.57,1.42,5.31,2.91,7.18,5.24s2.15,5.21,2.92,8a10.53,10.53,0,0,0,1.69,3.62,10.16,10.16,0,0,0,3.11,2.53c1.26.72,2.59,1.32,3.83,2.06a13.88,13.88,0,0,1,3.32,2.79,19.81,19.81,0,0,1,4.14,8.78c.1.41.69.23.63-.17a18.81,18.81,0,0,0-3.37-8,15.25,15.25,0,0,0-2.93-3,23.43,23.43,0,0,0-3.73-2.23,15.79,15.79,0,0,1-3.69-2.34,8.5,8.5,0,0,1-2.24-3.83c-.84-2.72-1.07-5.66-2.8-8-1.95-2.66-5-4.2-7.93-5.61-.15-.07-.27.14-.13.22Z" transform="translate(-22.86 -43.47)"/><path class="cls-34" d="M449.12,164.71a16.8,16.8,0,0,1,8,6,15.14,15.14,0,0,0,2.8,3.6,19.66,19.66,0,0,0,2.27,1.31,14.53,14.53,0,0,1,2,1.37,10.12,10.12,0,0,1,3.25,4,23.84,23.84,0,0,1,.79,4.91,7.19,7.19,0,0,0,2,4,15.91,15.91,0,0,0,3.8,2.65,17.55,17.55,0,0,1,4.72,3.15,5.25,5.25,0,0,1,1.3,5.1.3.3,0,0,0,.55.23,4.32,4.32,0,0,0-.09-4.18,8.68,8.68,0,0,0-3.35-3.45c-2.81-1.79-6.8-3-7.89-6.51-.52-1.7-.4-3.51-.82-5.23a8.58,8.58,0,0,0-2.51-4,16.65,16.65,0,0,0-4.19-3,7.37,7.37,0,0,1-2.24-1.59,20.51,20.51,0,0,1-1.59-2.23,16.66,16.66,0,0,0-8.7-6.41c-.17-.06-.23.2-.07.25Z" transform="translate(-22.86 -43.47)"/><path class="cls-33" d="M459.5,165.77c.34,6.41,8,7.79,12.48,10.31,2.6,1.45,4.53,3.57,4.74,6.65a26.52,26.52,0,0,1-.43,3.54,4.27,4.27,0,0,0,1.2,3.15,31.1,31.1,0,0,1,2.6,2.9,9.3,9.3,0,0,1,1.44,3.49A5.82,5.82,0,0,1,478.7,202c-1.89,1-4.15,1.16-6.25,1.35a.35.35,0,0,0,0,.7c3.78.15,8.21-.68,9.71-4.65a8.38,8.38,0,0,0-.93-7.1,15.11,15.11,0,0,0-2.49-3,3.91,3.91,0,0,1-1.44-3.59,12.17,12.17,0,0,0,.33-3.5,8.13,8.13,0,0,0-3.12-5.63c-2.37-1.9-5.35-2.8-8.09-4a15.77,15.77,0,0,1-4.25-2.54,8.23,8.23,0,0,1-2.41-4.36.13.13,0,0,0-.26,0Z" transform="translate(-22.86 -43.47)"/><path class="cls-33" d="M421,176.19a14,14,0,0,1,5.64,7.2c1.05,3.13.87,6.55,2.38,9.55a7.7,7.7,0,0,0,2.84,3.17,11.77,11.77,0,0,0,4.08,1.36c1.43.26,2.87.41,4.28.74a12.81,12.81,0,0,1,4.18,1.83,11.18,11.18,0,0,1,3.5,3.74,6.16,6.16,0,0,1,.81,2.47,4.51,4.51,0,0,1-.53,2.41.34.34,0,0,0,.53.41,4.06,4.06,0,0,0,.72-4,9.69,9.69,0,0,0-2.27-3.81,13.85,13.85,0,0,0-8-4.17c-3.06-.53-6.6-.67-8.62-3.39s-1.93-6.59-2.92-9.84a13.75,13.75,0,0,0-6.44-7.86.14.14,0,1,0-.14.24Z" transform="translate(-22.86 -43.47)"/><path class="cls-33" d="M393.85,181.89a12.13,12.13,0,0,1-.47-9.4,10.9,10.9,0,0,1,2.77-4,6.85,6.85,0,0,0,1.67-1.93,6.35,6.35,0,0,0,.57-2.14c.22-1.72.28-3.45,2-4.36a13.34,13.34,0,0,1,2.42-.85,13.84,13.84,0,0,0,2.39-1,30.77,30.77,0,0,1,5.32-2.59,22,22,0,0,1,5.87-.94,34.83,34.83,0,0,1,7.06.59c2.36.41,4.67,1.06,7,1.43a.32.32,0,0,0,.17-.62,48,48,0,0,0-6.62-1.61,39.38,39.38,0,0,0-6.41-.68,24.16,24.16,0,0,0-6.17.66,20.68,20.68,0,0,0-5.54,2.35,15.49,15.49,0,0,1-2.8,1.38c-.86.29-1.74.49-2.57.84a4.37,4.37,0,0,0-2.79,3.52c-.15.88-.16,1.79-.35,2.66a4.52,4.52,0,0,1-1.45,2.37,12.59,12.59,0,0,0-3,4c-1.44,3.23-1.56,7.53.61,10.5a.15.15,0,0,0,.26-.16Z" transform="translate(-22.86 -43.47)"/><path class="cls-8" d="M429.36,202.8a9,9,0,0,1-10.22,7.51,8.79,8.79,0,0,1-7.86-9.75,9,9,0,0,1,10.22-7.51A8.79,8.79,0,0,1,429.36,202.8Z" transform="translate(-22.86 -43.47)"/><path class="cls-8" d="M402.89,196.19c-.62,4.56-4,7.9-7.57,7.45s-5.94-4.5-5.31-9.06,4-7.9,7.57-7.45S403.52,191.62,402.89,196.19Z" transform="translate(-22.86 -43.47)"/><line class="cls-8" x1="380.06" y1="150.74" x2="390.01" y2="153.2"/><line class="cls-8" x1="406.51" y1="157.19" x2="418.12" y2="157.34"/><line class="cls-8" x1="367.6" y1="149.19" x2="369.89" y2="149.66"/><path class="cls-32" d="M437.91,201.73c1.92-2.68,6.69-4.2,9.47-1s2.31,8.56-.35,11.8c-2,2.49-6.4,4.18-9.62,2.93-1.39-.54-1.5-1.69-2.1-3" transform="translate(-22.86 -43.47)"/><path class="cls-8" d="M446.12,204.49,437,208.61" transform="translate(-22.86 -43.47)"/><path class="cls-8" d="M443.92,215.17a8.33,8.33,0,0,1-5.94.42,3.54,3.54,0,0,1-2.66-3.19" transform="translate(-22.86 -43.47)"/><path class="cls-8" d="M438.36,201.18a4.63,4.63,0,0,1,3.27-2.09" transform="translate(-22.86 -43.47)"/><path class="cls-8" d="M273.23,236s8.37-14.64,21.7-13.74c18.15,1.23,21.7,18.56,21.7,18.56" transform="translate(-22.86 -43.47)"/><path class="cls-35" d="M364.92,207.77c-.15.78-7.48,24.09-7.48,24.09s-7.75,4.48-22.72-1.22c-9.31-3.55-13.14-7.11-14.92-11.69-.23-.6,7.57-22.36,7.57-22.36" transform="translate(-22.86 -43.47)"/><path d="M362.5,215.69s-10.38-2.37-14.22-3.61c4.26,4.62,12.56,8.94,12.56,8.94Z" transform="translate(-22.86 -43.47)"/><path class="cls-36" d="M361,227.29c-39.4-2.14-38.76-16.19-38.76-16.19s-33.65,12.69-45.71,58.12c-8,30-1.45,75.64-1.45,75.64s1.55,8.52,22.2,13.47,45.15-.44,45.15-.44l25.9-42.38s31-6,13.32-56.06" transform="translate(-22.86 -43.47)"/><path class="cls-35" d="M367.27,288.73s37.37,44.54,69.78,54.94c14.38,4.61,34.49,1.35,51.64-21.8,5.06-6.82,9.33-13.46,10.72-21.76,2-11.92,1.75-27-7.54-37.16-5.83-9.47-11.09-12.92-14.11-13,2.91,3.88,4.33,7.42,6.43,12.43a36.93,36.93,0,0,1,2.69,10s-2.7-6.61-5.21-6.75c-2.11-.11.67,19.2-2.61,25.86-5.61,11.37-21.62,16.13-30.08,16.5-10.62-10.76-26.1-31.38-44.22-51.3C389,239.33,378,232.24,369.68,229.5" transform="translate(-22.86 -43.47)"/><path class="cls-8" d="M486.88,272.33s-.1,4.81-.5,8.49" transform="translate(-22.86 -43.47)"/><path class="cls-8" d="M485.42,255s6.44,7.19,8.22,12.54c1.12,3.35,2.83,9.62,2.83,9.62" transform="translate(-22.86 -43.47)"/><path class="cls-36" d="M359,226.87c10.78.9,25.14,6.35,33.27,14.15,5.74,5.5,11.81,13,18.71,22.59a23.67,23.67,0,0,0-9.61,6.09c-10,11.15-14.88,28.94-14.27,40.85l-26.86-24.44" transform="translate(-22.86 -43.47)"/><path class="cls-8" d="M381.9,305.87a161,161,0,0,1-22.34-34.28" transform="translate(-22.86 -43.47)"/><path class="cls-8" d="M404.76,255.83c-10.44,3-28,19-28.22,43.38" transform="translate(-22.86 -43.47)"/><path d="M357.41,282.11a53.33,53.33,0,0,1,5.64,3.78c1.74,1.21,3.66,2.61,5.77,3.06a.33.33,0,0,0,.18-.64,21.36,21.36,0,0,1-5.77-3.07,64.76,64.76,0,0,0-5.57-3.55c-.28-.14-.52.28-.25.42Z" transform="translate(-22.86 -43.47)"/><path class="cls-32" d="M298.17,228.51c-8.64-3.39-19.4,5.82-23,11.58-3.14,5-3.47,9.15-3.38,15.65.09,7.14,6.18,18.66,9.34,19.26.86.7.83,1.61,2.59,2.71.9.57,3.39,1.45,3.44.39.81-.17,1.28-.86,1.74-2a22.62,22.62,0,0,0,.61-4.12c1.29-2.19.8-3.09,1.05-5.45s-.72-5.76-.84-8.23a17.49,17.49,0,0,1,1.71-8.51s.58,4.55,3.11,5.73c1.09.51,2.41-4.6,2.57-5.78C298.34,240.85,301,237,298.17,228.51Z" transform="translate(-22.86 -43.47)"/><line class="cls-8" x1="268.6" y1="206.35" x2="272.5" y2="196.62"/><path class="cls-8" d="M283.52,249.73A29.6,29.6,0,0,0,284.2,261a30.72,30.72,0,0,0,5.33,11" transform="translate(-22.86 -43.47)"/><path class="cls-8" d="M277.72,255.32a66.91,66.91,0,0,0,2.68,10.38,73.21,73.21,0,0,0,6.78,12.4" transform="translate(-22.86 -43.47)"/><path class="cls-8" d="M274.43,258.53s1.51,8.62,9,19" transform="translate(-22.86 -43.47)"/><path class="cls-32" d="M373,285.29c-13.53-5.58-33.16-17.13-36.41-16.88-2.58.2,3.18,6.82,3.18,6.82a48.48,48.48,0,0,1-10.19-7.64c-2.51-2.65-4.19-6.12-7.6-7.59-1.94-.83-2.86-.58-3.09.35a5.67,5.67,0,0,0-2.38-1.56c-2.19-.68-1.81,3.28-.33,8a4.7,4.7,0,0,0-1.7-1.18c-1.83-.71-1.85,5.21-.29,11-.14-.1-.23-.12-.26,0-.18.58,4.09,13.8,12.53,20.31,6.91,5.33,16.22,11.05,28.88,16.74" transform="translate(-22.86 -43.47)"/><path class="cls-8" d="M318.9,260.35s4.5,13.09,14.51,18.84" transform="translate(-22.86 -43.47)"/><path class="cls-8" d="M316.19,266.77s5.42,14,12.71,19.87" transform="translate(-22.86 -43.47)"/><path class="cls-8" d="M313.94,276.56s4.6,11.4,12.43,17.5" transform="translate(-22.86 -43.47)"/><line class="cls-8" x1="316.92" y1="231.76" x2="324.03" y2="233.97"/><path class="cls-31" d="M431.81,262.87l1.26,41.74s-46.26-13.75-77.47-28.07l-10,37.35s41.75,19.5,64.09,28.58c20,8.14,38.42,13.51,51.26,5.15,14.2-9.24,16.71-70.18,16.71-70.18" transform="translate(-22.86 -43.47)"/><path class="cls-8" d="M345.59,313.89s41.75,19.5,64.09,28.58c20,8.14,38.2,13.19,51.26,5.15,13.85-8.52,16.71-70.18,16.71-70.18" transform="translate(-22.86 -43.47)"/><polyline class="cls-8" points="408.96 219.41 410.21 261.14 367.33 246.94"/><line class="cls-8" x1="410.21" y1="261.14" x2="422.62" y2="264.91"/><line class="cls-8" x1="345.23" y1="238.12" x2="336.08" y2="276.6"/><path class="cls-35" d="M383.81,187.54A2.33,2.33,0,0,0,383,186c-.67-.42-1.59-.14-2.35-.4a3.21,3.21,0,0,1-1.65-2c-1.4-3.32-2.77-6.66-4.21-10s-2.6-6.88-5.39-9.37c-3.28-2.92-8.2-4.2-12.39-5.36a27.22,27.22,0,0,0-13.38-.65c-9.31,2.2-16.17,10.76-17.28,19.85-1.65,13.51,7.69,25.83,19.4,32.49a65.84,65.84,0,0,0,14.77,6,32.37,32.37,0,0,0,9.25,1.46,14.51,14.51,0,0,0,8.76-2.8c3.23-2.56,4.66-6.63,5.4-10.57A44.92,44.92,0,0,0,383.81,187.54Z" transform="translate(-22.86 -43.47)"/><path d="M379.19,160.78c-2.42-7.06-8.47-11.25-15.84-14.14-5.74-2.25-12.32-1.43-19.42,0-5.34-2.48-12.54,3.55-17.69,7.32-7.1,5.2-9.9,8.64-13.16,17-4.71,12.08,1.73,28.93,13.94,34.33a25.51,25.51,0,0,0,14.71,2s-3.48-3.15-2.67-5a9.58,9.58,0,0,0,.52-4.41c-.18-5.88,2.21-13,8.12-15.36,3.56-1.4,7.2-2.19,10.16-4.81a14.28,14.28,0,0,0,4.64-10.58c7-.43,11.78,6.35,13.67,9.66C378.17,174,381,165.94,379.19,160.78Z" transform="translate(-22.86 -43.47)"/><path class="cls-35" d="M347.83,192.19c-3.52-2.77-7.9-3.78-10.24,1.1a10.54,10.54,0,0,0,3.05,12.89c3.67,2.63,9.15,2.66,11-2.1" transform="translate(-22.86 -43.47)"/><line class="cls-8" x1="317.6" y1="152.56" x2="326.1" y2="157.41"/><path class="cls-8" d="M338.89,205.53a9.43,9.43,0,0,0,8.05,2.35,6.59,6.59,0,0,0,4.64-3.3" transform="translate(-22.86 -43.47)"/><path class="cls-8" d="M341.08,190a11.48,11.48,0,0,1,5.88,1.53" transform="translate(-22.86 -43.47)"/><path class="cls-19" d="M347.86,205.19c2.76-.82,5,1.13,6.13,3.34a11.47,11.47,0,0,1,1.44,5.62c0,1.74-.59,3.85-2.32,4.74a4.15,4.15,0,0,1-4.72-.84,10.28,10.28,0,0,1-2.33-3.61,12.88,12.88,0,0,1-.79-5.83" transform="translate(-22.86 -43.47)"/><path d="M342.81,137.83a16.56,16.56,0,0,0-3-4.64c-3.47-3.77-11.8-8.39-16.12-3.4a9.61,9.61,0,0,0-6.06,1.08,5.07,5.07,0,0,0-2.27,2.37c-.63-.7-1.75-.39-2.56.13a8.8,8.8,0,0,0-2.13,1.92,7.91,7.91,0,0,0-5.38,1.14,14,14,0,0,0-4.75,5.22,18.38,18.38,0,0,0-2.36,8.63,13.08,13.08,0,0,0,5.58,11.39,15.93,15.93,0,0,0,16.87,1.55s4.12-5.86,6.8-7.44l1.5-.1a12,12,0,0,0,5-3.17c4.48,1.21,9.66-2,10.17-6.46A16.25,16.25,0,0,0,342.81,137.83Z" transform="translate(-22.86 -43.47)"/><path d="M299.84,143.94c-1.47,2.69-3.54,5.07-4.44,8a7.7,7.7,0,0,0,1.47,7.44c3.47,4.17,9.54,5.93,14.79,5.24a11.17,11.17,0,0,0,7.59-3.85c.28-.36-.18-.87-.52-.52-3.44,3.63-9.15,4.24-13.78,3a15.44,15.44,0,0,1-6.63-3.61,8.39,8.39,0,0,1-2.15-3.05,7,7,0,0,1-.15-4c.73-3.09,2.84-5.63,4.21-8.44.13-.26-.25-.49-.39-.23Z" transform="translate(-22.86 -43.47)"/><path d="M332.09,202.16c-2.84.66-6.19,1.82-7.51,4.68-1.24,2.68.27,5.52,2.73,6.83a.44.44,0,0,0,.44-.75c-2.06-1.31-3.47-3.71-2.19-6.07s4.2-3.53,6.69-4.13c.36-.08.21-.65-.16-.56Z" transform="translate(-22.86 -43.47)"/><path d="M326.61,203.69a8.15,8.15,0,0,0-4.91,2,4.61,4.61,0,0,0-1.2,5.08c.15.35.6.07.56-.24a4.9,4.9,0,0,1,1.37-4.37,7.83,7.83,0,0,1,4.25-1.95c.3,0,.23-.56-.07-.53Z" transform="translate(-22.86 -43.47)"/><path class="cls-37" d="M315.12,165.48a42.9,42.9,0,0,1,12.09-12.78c4.73-3.39,11.05-6.85,16.89-6.5" transform="translate(-22.86 -43.47)"/><path class="cls-5" d="M382.38,198.05a62.09,62.09,0,0,0-6.35.37s.54,6,3.1,6.39C383,205.41,382.38,198.05,382.38,198.05Z" transform="translate(-22.86 -43.47)"/><path d="M374.32,185.49a2,2,0,0,1-2.34,1.57,1.94,1.94,0,0,1-1.64-2.24,2,2,0,0,1,2.34-1.57A2,2,0,0,1,374.32,185.49Z" transform="translate(-22.86 -43.47)"/><path class="cls-8" d="M374.05,178.52a6.26,6.26,0,0,0-6.45.67,9.77,9.77,0,0,0-3.48,5.51" transform="translate(-22.86 -43.47)"/><path class="cls-38" d="M372.35,196.48a6.24,6.24,0,0,1-6.69,5.7,6.16,6.16,0,0,1-6-6.38,6.23,6.23,0,0,1,6.68-5.7A6.16,6.16,0,0,1,372.35,196.48Z" transform="translate(-22.86 -43.47)"/><path class="cls-8" d="M268,278.84a121.76,121.76,0,0,0-1,35" transform="translate(-22.86 -43.47)"/><path class="cls-8" d="M262.91,277.17a64.85,64.85,0,0,0-1.84,18.62" transform="translate(-22.86 -43.47)"/><path class="cls-8" d="M472,227.82a116.1,116.1,0,0,1,18.46,20.94" transform="translate(-22.86 -43.47)"/><path class="cls-8" d="M471.35,219.11a40.19,40.19,0,0,1,15.07,14" transform="translate(-22.86 -43.47)"/><path class="cls-39" d="M317.82,366.39c-2.42,16.38,4.58,50.84,8.56,66.91,3,12.1,6.42,33,18.73,39.16,13.39,6.72,29.37,8.78,44.18,7.48,11.64-1,34.06-5.41,38.31-18.5,2.63-8.11,5.36-16.19,7.88-24.33,3.95-12.75,10-45.85,12.76-58.9.37-1.79-12.7-19.5-34-25.61S353.46,350,317.82,366.39Z" transform="translate(-22.86 -43.47)"/><path class="cls-40" d="M331.85,413.88c-.79,3.85-.25,7.86.36,11.69s1.25,7.6,1.84,11.41a219,219,0,0,0,4.32,22.45,65.62,65.62,0,0,0,4.19,11.79c.14.3.66.09.54-.23a123.67,123.67,0,0,1-6-21.27c-1.44-7.42-2.47-14.91-3.78-22.35a50.92,50.92,0,0,1-1.06-13.43.19.19,0,0,0-.38-.06Z" transform="translate(-22.86 -43.47)"/><path class="cls-8" d="M417.81,465a44.87,44.87,0,0,0,11.05-9.35" transform="translate(-22.86 -43.47)"/><path class="cls-8" d="M406.24,466.52q6.92-3.69,13.69-7.65" transform="translate(-22.86 -43.47)"/><path class="cls-13" d="M363.55,295.28a107.66,107.66,0,0,0-8.05,7.65c-6.06,6.39-11.48,13.8-13.65,22.41-1.41,5.58-3.2,11.21-1.06,16.61,3.36,8.5,13.13,14.68,21.74,16.51,10.12,2.15,20.24-2,28.87-7.29,6.78-4.13,12-9.34,13.66-17.43.85-4,1.42-8.19,2-12.25.51-3.31.23-7.14-1.9-9.86" transform="translate(-22.86 -43.47)"/><path class="cls-41" d="M380,295.62c-5.73-1.29-10.76,1.84-15.63,4.87-5.42,3.38-11.55,8.91-13,15.39-1.54,6.84,2,15-3.05,20.88-4.07,4.68-12.66,3.34-18.63,4.34-3.88.65-7.87,1.15-11.39,2.92-12.07,6.06-3.89,18,5.32,21.67,10.13,4.09,21.61,3,32.26,2.7,11.9-.34,23.68,1.91,35.57,1.82,8.55-.07,18.47-1.18,24.43-8.07,4-4.58,5.23-10.39,4.58-16.3-.61-5.47-2.66-10.59-4.09-15.85-1.59-5.91-3-11.87-4.09-17.89" transform="translate(-22.86 -43.47)"/><path class="cls-40" d="M408.53,301.63c-6.63-10-17.52-17.17-29.9-16.56-12,.6-24.34,6.53-31.45,15.91-5.13,6.77-8.84,17.39-6,25.69a38.87,38.87,0,0,0,16.52,20.47c18.68,11.4,51.51,5.71,56.87-17.54C416.67,320.35,414.11,310,408.53,301.63Z" transform="translate(-22.86 -43.47)"/><path class="cls-40" d="M409.06,293.42c-5.11-9-13.95-15.81-24.42-15.78-10.15,0-20.84,4.72-27.28,12.67-4.65,5.73-8.28,14.9-6.33,22.31a33.73,33.73,0,0,0,13,18.66c15.21,10.79,43.17,7.16,48.8-13C415,310.21,413.37,301,409.06,293.42Z" transform="translate(-22.86 -43.47)"/><path d="M357,290c-5.92,7.35-8.47,17.49-5.25,26.55A30.67,30.67,0,0,0,359,327.76a31.67,31.67,0,0,0,8.68,6.29,36.68,36.68,0,0,0,17.7,3.32,34.47,34.47,0,0,0,17.47-5.57,26.11,26.11,0,0,0,10.68-15.21c.21-.84.39-1.69.52-2.55.11-.63-.86-.9-1-.26a25.43,25.43,0,0,1-9,15.87,31.91,31.91,0,0,1-16.3,6.52,37,37,0,0,1-17.36-2,31.33,31.33,0,0,1-16.22-14.48,24.63,24.63,0,0,1-2.86-13,28.21,28.21,0,0,1,4.32-13.2,31.29,31.29,0,0,1,2-2.82c.4-.5-.3-1.21-.7-.71Z" transform="translate(-22.86 -43.47)"/><path class="cls-8" d="M390.72,282.4a3.23,3.23,0,0,0-2.6-1.37,3.85,3.85,0,0,0-3.54,1.72c.28,1.26,3.32,4.16,6.23,2.53A2.72,2.72,0,0,0,390.72,282.4Z" transform="translate(-22.86 -43.47)"/><path class="cls-8" d="M384.58,282.75a30.36,30.36,0,0,0-19.2.53" transform="translate(-22.86 -43.47)"/><path class="cls-8" d="M385.19,283.84s-22.81,3.69-32.41,33.91" transform="translate(-22.86 -43.47)"/><path class="cls-8" d="M390.1,286a2.9,2.9,0,0,1-.36-.25c6.15,5.71,8.53,11.87,9.35,20.53" transform="translate(-22.86 -43.47)"/><path class="cls-8" d="M400,313.63A91,91,0,0,1,397.82,334" transform="translate(-22.86 -43.47)"/><path class="cls-8" d="M391,283.23a24.56,24.56,0,0,1,13.12,4" transform="translate(-22.86 -43.47)"/><line class="cls-8" x1="309" y1="281.71" x2="296.14" y2="268.01"/><line class="cls-8" x1="305.08" y1="287.16" x2="290.39" y2="276.85"/><line class="cls-8" x1="301.96" y1="293.44" x2="286.42" y2="290.88"/><path class="cls-42" d="M161,162.08a50.79,50.79,0,0,1,7.82-13.63c-5,1.38-11.44,5.59-12.49,6.28-16.23,10.77-32.15,31.46-34.7,59.27-2,21.51,7.1,45.42,12.79,65.05,13.33,45.94,30,59.76,30.86,61.12l16.95-85.35c-13.3-16.51-20-37.46-23.18-58.17C158.28,191.71,157.29,172.89,161,162.08Z" transform="translate(-22.86 -43.47)"/><path class="cls-43" d="M254.28,348C253.5,321.92,213,281.18,213,281.18l-55.89-4c-6.3,17.23-10.56,36.46-11.18,54.8-.63,18.93.71,41.77,5.1,58,7.81,28.9,32.3,51.51,60.05,61.46a105.38,105.38,0,0,0,34.08,5.75c2.08,0,9.66-1,13.08-4.32,8.92-8.57,2.31-28-1.16-46.39S255.07,374,254.28,348Z" transform="translate(-22.86 -43.47)"/><path class="cls-44" d="M231.42,373.58c0,1.16,1.34,23.68,5.71,42,4.46,18.64,11.5,28.47,8,41.7" transform="translate(-22.86 -43.47)"/><path class="cls-13" d="M340.23,373.62c-27.76,5.7-41.26,15-77,15.79-9.4.21-27.9-3.74-35.73-5.78-13.62-3.53-33.89-12.08-36.92-11.36-2.4.57,4,6.27,4,6.27a46.17,46.17,0,0,1-10.78-6.06c-2.77-2.25-4.88-5.43-8.32-6.39-2-.54-2.79-.15-2.87.8a5.4,5.4,0,0,0-2.48-1.2c-2.17-.35-1.21,3.51.91,7.93a4.64,4.64,0,0,0-1.78-.91c-1.84-.44-.95,5.42,1.41,10.92-.15-.08-.24-.09-.25,0-.09.6,6,13,14.92,18.24,13.67,7.94,35.44,16,70.62,20.62s84.21-8.35,84.21-8.35" transform="translate(-22.86 -43.47)"/><path class="cls-8" d="M172.67,366.89s6.25,12.28,16.57,16.5" transform="translate(-22.86 -43.47)"/><path class="cls-8" d="M171.1,373.62s7.25,13.07,15,17.79" transform="translate(-22.86 -43.47)"/><path class="cls-8" d="M170.48,383.63s6.07,10.59,14.39,15.48" transform="translate(-22.86 -43.47)"/><line class="cls-8" x1="171.78" y1="335.08" x2="182.67" y2="336.85"/><path class="cls-39" d="M340.43,423.49l-52.67,8.38S275.51,415.2,278.07,380c0,0,53.77-21.93,73.56-16.36" transform="translate(-22.86 -43.47)"/><path class="cls-8" d="M287.68,376s-3,29.38,7.07,54.3" transform="translate(-22.86 -43.47)"/><line class="cls-8" x1="301.76" y1="382.33" x2="322.84" y2="378.57"/><path d="M292.37,342.68c4.82,8.79-.55,60.49-19.51,52.93-16.48-6.56-24.23-44.24-24.23-44.24s21-19,21.56-19.05S288.75,336.07,292.37,342.68Z" transform="translate(-22.86 -43.47)"/><path class="cls-42" d="M273.23,328.76c18.22,11.25,39.63,20.83,60.18,26,13.44,3.36,43.13,6.57,77.22,3.52L408,390.73c-25.17,3.76-52.16,6.73-78.1,4.88-28.11-2-53.41-8.66-77.58-15.38" transform="translate(-22.86 -43.47)"/><path class="cls-42" d="M372.54,394.49c32.84-1.42,53.59-7.05,66.84-13.19,8.69-4,15.27-14.87,15.24-15.42,0-.08-.09-.08-.23,0,2.61-4.82,5-8.54,3.28-8.29a4.29,4.29,0,0,0-1.71.69c2.3-3.86,3.5-7.29,1.47-7.14a5,5,0,0,0-2.38.89c0-.87-.74-1.29-2.59-.95-3.25.6-4,1.07-7.5,3.05a95,95,0,0,1-12.24,5.24s6.41-4.68,4.23-5.39c-2.74-.9-33.23,6.89-50.77,6.32" transform="translate(-22.86 -43.47)"/><path class="cls-8" d="M455.05,352s-7.87,9.14-17.73,12.17" transform="translate(-22.86 -43.47)"/><path class="cls-8" d="M456,358.26s-8.86,9.79-16.41,13.46" transform="translate(-22.86 -43.47)"/><path class="cls-8" d="M454.62,365.88s-6.46,9.16-14.53,12.94" transform="translate(-22.86 -43.47)"/><line class="cls-8" x1="409.87" y1="315.88" x2="399.67" y2="316.63"/><path class="cls-43" d="M207.09,271.62c-12.53-9.67-34.28-32.71-34.28-32.71-28.15,1-38.89,22-40.61,41.24,2.76,14.88,15.58,46,15.58,46" transform="translate(-22.86 -43.47)"/><path class="cls-43" d="M218,282.51c31.28,17.75,46.6,39.37,70.78,55,0,0-9.74-.53-16.95,20.73-4.08,12-7.35,31.74,1.06,37.35,0,0-34-11.89-59.66-24.73" transform="translate(-22.86 -43.47)"/><path class="cls-44" d="M224,376.35s-6.06-29.74,14.64-54.09c11.79-13.88,22.91-6.48,22.91-6.48" transform="translate(-22.86 -43.47)"/><path class="cls-44" d="M219.78,299.28c32.12,13.67,36.1,24.87,61.36,42.57" transform="translate(-22.86 -43.47)"/><path class="cls-44" d="M165,240c12.67,21.47,22.27,20.92,39,44.79" transform="translate(-22.86 -43.47)"/><path class="cls-44" d="M145.79,304.44c3.38-17.73,10.32-30.1,15.8-36.6,6.65-7.89,18-13.5,28.56-11.6" transform="translate(-22.86 -43.47)"/><path class="cls-8" d="M253.1,388.67s-24.47-9.36-35.76-15.77" transform="translate(-22.86 -43.47)"/><path class="cls-8" d="M146.51,329.24s-2.18-29.75,1.17-44.5" transform="translate(-22.86 -43.47)"/><path class="cls-8" d="M203.68,271.89c-10.67-1.71-16.49,9.21-15.32,19,1.79,15,18.78,22.81,32.82,22.74,9.24-.05,19.78-6.26,20.73-14.33" transform="translate(-22.86 -43.47)"/><path class="cls-8" d="M112.77,192.17a107.12,107.12,0,0,1,13-23.81" transform="translate(-22.86 -43.47)"/><path class="cls-8" d="M112.2,171.43a75.63,75.63,0,0,1,9.85-12.29" transform="translate(-22.86 -43.47)"/><path class="cls-42" d="M241.49,277.39l-4.16,20.12A12.21,12.21,0,0,1,228,306.9a33.71,33.71,0,0,1-20.47-1.56A28.46,28.46,0,0,1,192.63,292a11.85,11.85,0,0,1-.15-10.59l9.54-20" transform="translate(-22.86 -43.47)"/><path d="M241.49,278.37l-10.58-5.24L228,276.18c2.44,5.78,7.85,9,11.39,11.3Z" transform="translate(-22.86 -43.47)"/><path class="cls-42" d="M241.65,218.12c5.72,4.32,11.64,9,14.41,15.49a40,40,0,0,1,2.25,8.68c.66,3.64,2.13,8.89,2.79,12.53a37.08,37.08,0,0,1,.37,11.47c-.39,4.36-2.12,8.79-5.58,11.59s-8.51,3.68-13.16,3.47c-8.52-.37-17.19-4.05-22-10.9" transform="translate(-22.86 -43.47)"/><path class="cls-5" d="M260.08,262.87,253.41,265s-.06,7,3.33,6.23C261.3,270.23,260.08,262.87,260.08,262.87Z" transform="translate(-22.86 -43.47)"/><path class="cls-42" d="M260.58,252.25a8.18,8.18,0,0,0,3.05,4,2.12,2.12,0,0,1,.77,1.48,2.35,2.35,0,0,1-1.32,2.06,5.49,5.49,0,0,1-2.5.53" transform="translate(-22.86 -43.47)"/><path d="M257.86,251.07c0,1.1-.59,2-1.32,2s-1.32-.89-1.32-2,.59-2,1.32-2S257.86,250,257.86,251.07Z" transform="translate(-22.86 -43.47)"/><path class="cls-8" d="M257.86,243c-1.43-1.88-4.05-.68-5.2.84a7,7,0,0,0-1.4,4.13" transform="translate(-22.86 -43.47)"/><path class="cls-45" d="M256,232.44a11.22,11.22,0,0,0,1.77-5.92,34.17,34.17,0,0,0-.65-9.52,13.15,13.15,0,0,0-5.24-7.87,6.34,6.34,0,0,0-3.5-1.16,15.34,15.34,0,0,0-2.76.48c-5.21,1-10.41-1.49-15.66-2.36a25.23,25.23,0,0,0-11.8.87,25.8,25.8,0,0,1-4.11,1.21,35.11,35.11,0,0,1-3.84.12,18.69,18.69,0,0,0-16.39,10.84c-.91,2.11-1.41,4.39-2.55,6.39s-2.89,3.67-3.95,5.73c-1.69,3.28-1.44,7.16-1.15,10.83.27,3.49.58,7.09,2.27,10.19a14.26,14.26,0,0,1,1.22,2.4,8.82,8.82,0,0,1,.3,2.46c.05,2.53.08,5.2,1.43,7.36a14.06,14.06,0,0,0,3.72,3.57c2.92,2.18,6,4.43,9.6,5.12a15.13,15.13,0,0,1,3.22.69,24.89,24.89,0,0,1,3.33,2.2,13.16,13.16,0,0,0,7,1.46c2.87,0,6.15-.58,7.69-2.94,1.82-2.77.33-6.55,1.51-9.63a15.79,15.79,0,0,1,2.21-3.45,29.21,29.21,0,0,0,3.55-7c.42-1.1.85-3.9,2.38-4.07A8.07,8.07,0,0,1,238,251a9.91,9.91,0,0,0,2.64.38,6.36,6.36,0,0,0,4.56-2.06c2.86-3.18,1-7.87,3.54-11,1.65-2.05,4.43-2.65,6.22-4.58A11.48,11.48,0,0,0,256,232.44Z" transform="translate(-22.86 -43.47)"/><path class="cls-45" d="M194.34,218.67a96.81,96.81,0,0,1-6.64,8.21c-2.11,2.37-4.2,4.79-5.17,7.88-2,6.37.52,12.81,4.16,18a23.6,23.6,0,0,1,2.8,4.81c.71,1.82.95,3.75,1.57,5.59.12.34.71.31.68-.1a19.77,19.77,0,0,0-3.18-9.09c-1.79-2.71-3.68-5.26-4.8-8.36a17.38,17.38,0,0,1-.78-9.52c.72-3.33,2.73-5.9,4.93-8.41a75.11,75.11,0,0,0,6.74-8.85c.13-.2-.17-.37-.31-.19Z" transform="translate(-22.86 -43.47)"/><path class="cls-45" d="M245.42,247.64a12.08,12.08,0,0,1,1.44-4.18,17.68,17.68,0,0,1,2.53-4,13.63,13.63,0,0,1,4.13-2.71,14.38,14.38,0,0,0,4-2.64c2.88-3,3.6-7.54,3.4-11.53-.19-3.79-.68-8.1-3.18-11.14a9.45,9.45,0,0,0-10.93-2.63c-.38.17-.11.83.29.68a9.07,9.07,0,0,1,9.84,2.32,11.4,11.4,0,0,1,2.47,5.24,33.92,33.92,0,0,1,.75,5.86c.16,3.93-.61,8.56-3.75,11.26-2.3,2-5.62,2.58-7.59,5a18.85,18.85,0,0,0-2.53,4.28,12.34,12.34,0,0,0-1.27,4.22c0,.25.37.24.39,0Z" transform="translate(-22.86 -43.47)"/><path class="cls-42" d="M240.38,251.93a6.1,6.1,0,0,0-6.58-2.18c-7.29,2.19-2.94,15.51,2.95,16.59a4.21,4.21,0,0,0,5-3.43" transform="translate(-22.86 -43.47)"/><line class="cls-8" x1="218.1" y1="215.79" x2="210.36" y2="209.88"/><path class="cls-8" d="M230.77,259.9s2.17,7.2,7.22,6.54c2.33-.3,3.74-2.9,3.74-2.9" transform="translate(-22.86 -43.47)"/><path class="cls-13" d="M119.37,305.31c2.62,17.91,8.41,36.81,14.36,46.3,4.6,7.35,14.66,12.33,15.44,11.51,1.74-1.81-9.08-6.72-12.21-14.3,5.1,10.38,14.17,16.64,15.58,15.17a2.59,2.59,0,0,0,0-2c-1.34-2.73-7.9-8.23-12.56-17.92,2.67,6.32,11.86,19.37,14.94,18,.92-.42.57-3-.23-4.12-1.46-2.11-4.06-3.86-5.34-6.62-2.35-5.09-3.61-7.13-5.92-12.25,2.06,4.83,10.13,20.12,12.51,19.09,2-.86-1.69-7-3.09-9.62a50.2,50.2,0,0,1-4.39-10.61c1.72,3.86,3.92,4.09,4.65,3.31s-6.6-17-8.77-23" transform="translate(-22.86 -43.47)"/><line class="cls-8" x1="125.61" y1="295.22" x2="123.65" y2="288.96"/><path class="cls-8" d="M143,339.12a73,73,0,0,0,5.25,10.32c2,3.18,4.1,6.32,7,8.68" transform="translate(-22.86 -43.47)"/><path class="cls-8" d="M140.3,345.35a40.81,40.81,0,0,0,12.24,16.24" transform="translate(-22.86 -43.47)"/><path class="cls-8" d="M136.73,349.5c2.74,5.56,7.56,9.81,12.44,13.62" transform="translate(-22.86 -43.47)"/><path class="cls-46" d="M590.63,292.16C609,255.88,617,229.92,613.45,192.45c-1.87-19.75-13.12-37.25-37.08-48.27,4.81,12.91,4.17,28.12,2.54,43.6C577.41,202,575.38,212.87,570,226" transform="translate(-22.86 -43.47)"/><path class="cls-47" d="M496.31,324.41c-2.8,12.56-5.66,25.11-8.9,37.53-3,11.36-7.44,22.7-7.72,34.76-.53,23.66,5.47,46.51,23.82,49,28.32,3.91,63.88-5.92,83.44-45.22,13.88-27.89,16.51-103.28,8.27-153.22" transform="translate(-22.86 -43.47)"/><path class="cls-48" d="M509.83,357.73c0,14-5.85,28.44-11.44,41.3s-6.07,31.62-6.42,41.31" transform="translate(-22.86 -43.47)"/><path class="cls-13" d="M424.4,413.13s51.86,5.9,76.27-.49c32-8.39,48.92-23.88,60.71-32.73,7.74-5.8,12-18,11.84-18.52,0-.08-.1-.06-.23,0,1.58-5.36,1.76-10.88.11-10.27a4.16,4.16,0,0,0-1.55,1c1.48-4.33,2-8,0-7.45a5.05,5.05,0,0,0-2.17,1.38c-.17-.87-1-1.14-2.74-.43-3.09,1.26-4.69,4.44-7,6.83a43.52,43.52,0,0,1-9.33,6.79s5.35-6,3.06-6.25c-2.89-.34-20.73,9.79-33,14.55a240.45,240.45,0,0,1-27.62,9.19c-11.38.3-32.42-2.45-63.6-9.76" transform="translate(-22.86 -43.47)"/><path class="cls-8" d="M569.36,346.12s-4.45,12.05-13.55,17.09" transform="translate(-22.86 -43.47)"/><path class="cls-8" d="M571.55,352.19s-5.29,12.89-12,18.11" transform="translate(-22.86 -43.47)"/><path class="cls-8" d="M573.22,361.39s-4.48,10.47-11.65,15.9" transform="translate(-22.86 -43.47)"/><line class="cls-8" x1="527.43" y1="315.84" x2="517.53" y2="318.67"/><path class="cls-39" d="M417.72,416.87l50.53,4.6c16-26.68,10.66-46.47,10.66-46.47s-66.67-19-86.48-10.51" transform="translate(-22.86 -43.47)"/><path d="M442.12,412.74a20.9,20.9,0,0,0,3.82-5.08,70.86,70.86,0,0,0,3.57-7c.14-.31-.31-.59-.47-.28-1.2,2.3-2.31,4.64-3.61,6.88-.53.92-1.08,1.82-1.69,2.7s-1.3,1.68-1.93,2.55c-.14.19.15.37.31.23Z" transform="translate(-22.86 -43.47)"/><path class="cls-8" d="M459,420.63s13.74-18.57,13-47.49" transform="translate(-22.86 -43.47)"/><path class="cls-8" d="M440.09,418.91c-.29,0,3.33-10.68,4.72-23.56" transform="translate(-22.86 -43.47)"/><path class="cls-49" d="M475.69,336s-14.58-4.2-11.55,7.32,11.92,49.67,22.59,46.49,19.71-30.54,10.22-38.52" transform="translate(-22.86 -43.47)"/><path class="cls-46" d="M530.23,338.14s-24.76,23.07-50.72,34.72-62.78,19.24-91.28,23.49l-10.69-30.44c37.59-8.89,67.68-19.93,87.4-32.33s33.34-40.05,65.29-55.94" transform="translate(-22.86 -43.47)"/><path class="cls-46" d="M402,359.81c-13.44,4.13-35.19,7.48-37.39,9.68-1.74,1.75,6.73,3.23,6.73,3.23a103.06,103.06,0,0,1-14.38.81c-4.38-.23-5.29-.35-8.73.64-1.95.56-2.45,1.33-2,2.18a5.41,5.41,0,0,0-2.74.28c-2,.84.81,3.62,4.93,6.28a4.43,4.43,0,0,0-2,.16c-1.79.59,2.35,3.07,7.24,6.52-.17,0-.25,0-.21.13.24.55,11.91,8,22.27,7.7,15.8-.41,38.57-4.95,70.94-19.47" transform="translate(-22.86 -43.47)"/><path class="cls-8" d="M346.23,376.35s12.07,5.14,23.07,3.33" transform="translate(-22.86 -43.47)"/><path class="cls-8" d="M348.42,382.91s13.35,5.28,22.44,5.22" transform="translate(-22.86 -43.47)"/><path class="cls-8" d="M353.46,389.72s10.72,5.83,20.37,5.62" transform="translate(-22.86 -43.47)"/><line class="cls-8" x1="348.5" y1="329.25" x2="358.71" y2="325.05"/><path class="cls-13" d="M621.51,306.69c-3.2,17.07-10.29,35.09-17.57,44.14-5.64,7-18,11.75-18.92,11-2.12-1.73,11.12-6.4,15-13.63-6.24,9.89-17.34,15.86-19.07,14.46a1.94,1.94,0,0,1,0-1.92c1.64-2.61,9.68-7.85,15.38-17.09-3.27,6-14.52,18.47-18.29,17.13-1.12-.4-.7-2.83.28-3.93,1.78-2,5-3.68,6.53-6.3,2.88-4.86,4.43-6.81,7.25-11.69-2.52,4.61-12.4,19.19-15.32,18.21-2.45-.83,2.08-6.64,3.79-9.18,2.55-3.79,4.59-7.47,5.37-10.11-2.1,3.68-4.8,3.89-5.69,3.15s9.78-22.75,12.44-28.42" transform="translate(-22.86 -43.47)"/><line class="cls-8" x1="563.04" y1="295.04" x2="565.43" y2="284.69"/><path class="cls-8" d="M592.58,338.93a65.54,65.54,0,0,1-6.43,9.83c-2.45,3-5,6-8.62,8.28" transform="translate(-22.86 -43.47)"/><path class="cls-8" d="M595.88,344.86c-3.38,6.36-8.21,11.07-15,15.48" transform="translate(-22.86 -43.47)"/><path class="cls-8" d="M600.26,348.82c-3.36,5.29-9.26,9.35-15.24,13" transform="translate(-22.86 -43.47)"/><path class="cls-21" d="M626,288.08a218.9,218.9,0,0,1-12.31,50.41,86.21,86.21,0,0,0-11.48-9.89,57,57,0,0,0-13.59-7.51s4.93-13.39,11-38.64" transform="translate(-22.86 -43.47)"/><path class="cls-8" d="M591.58,311.93s16.77,1.49,26.52,13.52" transform="translate(-22.86 -43.47)"/><path class="cls-47" d="M597.55,302c4.41-19.56,13.16-52.87,13.16-52.87-2.82-6.29-3.82-11.66-11.74-18.49S580.76,219.08,570,218.89a128.54,128.54,0,0,1-14.6,34.28" transform="translate(-22.86 -43.47)"/><path class="cls-47" d="M544,270.6c-11.26-2.43-22.89,6.15-31.4,12.53-19.23,14.42-31.27,36.09-49.58,51.63,7.46,0,17.92,8.86,22,21.05,4.95,14.88,7.84,28.16,1.74,34,0,0,25.9-10.94,43.5-28.35" transform="translate(-22.86 -43.47)"/><path class="cls-48" d="M522.45,368.38c5.68-3.68,11.83-11.34,18.14-20.15" transform="translate(-22.86 -43.47)"/><path class="cls-48" d="M471.85,326.39c8,2.58,13.25,9.6,16.94,16.81,6.63,12.95,10.58,28.21,5.32,42.33" transform="translate(-22.86 -43.47)"/><path class="cls-49" d="M516.86,282.75c3.89,7.43,11.18,19.39,17.41,25.68a41.88,41.88,0,0,0,8,6.59c11.67,7.07,28.66,5.8,41.15-.27,16.31-7.93,26.51-23.52,25.46-38.95a26.7,26.7,0,0,0-8.68-18.56c-6.47-5.71-16.41-8.35-26-8a60.22,60.22,0,0,0-26.55,7.94c-7.88,4.38-14.64,10-21.14,15.65a109.53,109.53,0,0,0-9.43,9.06c-.22.24-.44.55-.28.82" transform="translate(-22.86 -43.47)"/><path class="cls-50" d="M597.14,277.73a14.46,14.46,0,0,0-2-11.35,21.13,21.13,0,0,0-8.74-7.42,41,41,0,0,0-12.67-3.4,39.62,39.62,0,0,0-13.78.29,21.61,21.61,0,0,0-11.38,6.24c-.31.35.18.85.52.52,5.89-5.87,14.38-7.18,22.35-6.48s16.63,2.68,21.92,9.07a14.69,14.69,0,0,1,3.29,12.4.25.25,0,0,0,.48.13Z" transform="translate(-22.86 -43.47)"/><path class="cls-47" d="M526.8,286.71a2.18,2.18,0,1,1-2.18-2.17A2.18,2.18,0,0,1,526.8,286.71Z" transform="translate(-22.86 -43.47)"/><path class="cls-48" d="M577.53,267.55a13.24,13.24,0,0,0-4.64-6.89c-8.15-6.24-18.95.18-26,6.89" transform="translate(-22.86 -43.47)"/><path class="cls-46" d="M536.76,215.06c-10.47,1.72-16.93,22.48-18.73,33.22-1,6.12-2.16,15.55,3.35,20.2,2.91,2.46,7.07,3.29,11,3.33,15.49.14,23.68-10.89,28.34-22.94,2.36-6.11,4.44-13,2.45-19.45-1.89-6.14-7.27-10.57-12.76-14.16-1.35-.88-2.87-1.78-4.52-1.63" transform="translate(-22.86 -43.47)"/><path class="cls-51" d="M528.81,248a5,5,0,1,0,4.23-5.67A5,5,0,0,0,528.81,248Z" transform="translate(-22.86 -43.47)"/><path class="cls-46" d="M531.34,260.33l-6,22.65c4,1.56,12.89,10.18,23,8.54,7.26-1.18,11.61-1.69,14.65-4.29,2.33-2,3.45-4.73,4.29-8.71l2.45-26.66" transform="translate(-22.86 -43.47)"/><path class="cls-45" d="M557.94,253.61s1.34,9.35,2.36,13c1.54.65,7.16-.54,8.78-1.72,4.62-3.34,13.63-15.74,14.07-22.16.39-5.62-2.51-11.32-5.37-14.56-.43-5.9-2.76-9.47-4.74-12.48a17.76,17.76,0,0,0-4.34-4.83c-1.62-1.15-16.76-8-27.17-7a22.17,22.17,0,0,0-11.32,4.58c-2.54,2.21-1.37,7.32-1,11.54a15.12,15.12,0,0,1,6.28-4.63,33.69,33.69,0,0,0,11.23,6.36,58,58,0,0,0-1.24,8.61,10.34,10.34,0,0,0,.12,2.94,8.77,8.77,0,0,0,1.23,2.65c1.82,2.8,2.49,4,5.44,5.55-3.39,4.47-5.13,1.4-12.28,10-5-2.16-19.08-3.66-19.85-4.4-.45-.44-1.29-.88-1.36-1.92,0-.76-2.3,2.05-2.48,2.4a26.79,26.79,0,0,0-2.45,6,49.36,49.36,0,0,0-1.11,13.12,10.13,10.13,0,0,0,3.4,9c2,2,5.87,2,8.47,2.29,9,.93,18.2.07,25.31-6.07" transform="translate(-22.86 -43.47)"/><path class="cls-52" d="M540.11,258.46a37,37,0,0,0,2.34,17.26" transform="translate(-22.86 -43.47)"/><path class="cls-52" d="M546,255c1.15,4.4,2.43,9,5.72,12.18" transform="translate(-22.86 -43.47)"/><path class="cls-52" d="M550.71,250.74a26.39,26.39,0,0,0,4.85,8.06" transform="translate(-22.86 -43.47)"/><path class="cls-52" d="M517.47,256.64c-1.54,7.18,0,14.52,3.18,21" transform="translate(-22.86 -43.47)"/><path class="cls-46" d="M527,228.18c-3,2.21-13.86,10.07-12,13.87.27.54,1,.71,1.57.86a42.24,42.24,0,0,0,10.36.87" transform="translate(-22.86 -43.47)"/><path class="cls-46" d="M559.24,250.78c2.11-2.44,7-1.72,8.17,1.22,1.78,4.5-.84,11.87-8,12-1.8,0-4.38-1.76-4.36-3.81" transform="translate(-22.86 -43.47)"/><line class="cls-8" x1="533.33" y1="214.13" x2="542.36" y2="210.59"/><path class="cls-8" d="M555.25,261.16s1.36,3.53,5.94,2.63" transform="translate(-22.86 -43.47)"/><path class="cls-8" d="M519,243.39s5.49.63,6.3.39.48-4.66.48-4.66" transform="translate(-22.86 -43.47)"/><path d="M535.08,236.37a1.82,1.82,0,1,0,1.38-2.17A1.82,1.82,0,0,0,535.08,236.37Z" transform="translate(-22.86 -43.47)"/><path class="cls-5" d="M520.35,250.19l6,1.8s-1.35,6-4.69,5.4C518.9,256.87,520.35,250.19,520.35,250.19Z" transform="translate(-22.86 -43.47)"/><path d="M542.61,230.4a4.46,4.46,0,0,0-.65-1.61,10.59,10.59,0,0,0-4-3.09,5,5,0,0,0-1.78-.57,2.24,2.24,0,0,0-1.74.55,1.46,1.46,0,0,0-.31,1.71c.5.89,2.09,1.12,2.95,1.56a28,28,0,0,1,3.81,2.34,2.24,2.24,0,0,0,.78.44C542.48,232,542.72,231.06,542.61,230.4Z" transform="translate(-22.86 -43.47)"/><path class="cls-48" d="M518.42,282.29c8.43-1.13,15.59,7.59,23.05,9a31.56,31.56,0,0,0,21.09-3.92,40.92,40.92,0,0,0,9-6.83c2.63-2.63,5.47-5.72,6-9.9" transform="translate(-22.86 -43.47)"/><path class="cls-48" d="M525,286.71c-7.33,2.83-14.09.92-21.65,2.42-8.06,1.61-14.44,6.79-14.44,16.74" transform="translate(-22.86 -43.47)"/><path class="cls-48" d="M536.28,289.24c14.17,9,35.1,6.45,49.63-.28a48.5,48.5,0,0,0,8.31-4.88" transform="translate(-22.86 -43.47)"/></svg>