<svg id="Layer_1" data-name="Layer 1" xmlns="http://www.w3.org/2000/svg" viewBox="0 0 604.04 143.32"><defs><style>.cls-1{fill:#c4d2dd;}</style></defs><path class="cls-1" d="M187.57,131.73c-1.07-15.18-11.77-33.16-26-43.71C143.76,74.86,112.12,72.4,100.4,71.94V61.76a19.21,19.21,0,1,0-9,0V71.94C79.7,72.4,48.07,74.86,30.3,88c-14.26,10.56-25,28.53-26,43.71A184.91,184.91,0,0,0,4,151.57a15.61,15.61,0,0,0,15,14.91H20c3.32.08,12.91.1,24.22.1,21.76,0,49.85-.09,51.73-.1s30,.1,51.78.1c11.27,0,20.84,0,24.14-.1h1a15.58,15.58,0,0,0,14.95-14.91A182.31,182.31,0,0,0,187.57,131.73ZM85.68,43.1A10.24,10.24,0,1,1,95.92,53.34,10.25,10.25,0,0,1,85.68,43.1Zm93.19,108.11a6.58,6.58,0,0,1-6.23,6.31h-1c-9.62.21-141.89.22-151.52,0h-.87A6.59,6.59,0,0,1,13,151.21a174.13,174.13,0,0,1,.24-18.86c.75-10.76,8.7-27,22.42-37.13C54.88,81,95.51,80.8,95.92,80.8S137,81,156.2,95.22c13.73,10.16,21.67,26.37,22.43,37.13A174.13,174.13,0,0,1,178.87,151.21Z" transform="translate(-3.86 -23.89)"/><path class="cls-1" d="M137.46,96.1A24.56,24.56,0,1,0,162,120.66,24.58,24.58,0,0,0,137.46,96.1Zm-3.82,38.68a10.95,10.95,0,1,1,11.27-11A11.12,11.12,0,0,1,133.64,134.78Z" transform="translate(-3.86 -23.89)"/><path class="cls-1" d="M54.2,96.1a24.56,24.56,0,1,0,24.56,24.56A24.58,24.58,0,0,0,54.2,96.1ZM58,134.78a10.95,10.95,0,1,1,11.27-11A11.13,11.13,0,0,1,58,134.78Z" transform="translate(-3.86 -23.89)"/><path class="cls-1" d="M106.75,134.11c-4.8,2.67-19.45,2.67-24.26,0s-5.42,1.15-5.45,1.68.11,4.12,7,6.1a37.89,37.89,0,0,0,21.06,0c6.94-2,7.09-5.57,7.06-6.1S111.56,131.44,106.75,134.11Z" transform="translate(-3.86 -23.89)"/><path class="cls-1" d="M236.89,85.32h11.65v22.77a26.64,26.64,0,0,1,6.91-4.45,17.81,17.81,0,0,1,7.05-1.48A15.86,15.86,0,0,1,274.23,107q4.08,4.17,4.08,12.25v30.89H266.76V129.62c0-5.42-.26-9.08-.78-11a7.64,7.64,0,0,0-2.64-4.3,7.41,7.41,0,0,0-4.62-1.42,8.67,8.67,0,0,0-6.12,2.37,12.47,12.47,0,0,0-3.55,6.44q-.51,2.1-.51,9.63v18.77H236.89Z" transform="translate(-3.86 -23.89)"/><path class="cls-1" d="M294.23,84.11a7.2,7.2,0,0,1,5.3,2.24,7.7,7.7,0,0,1,0,10.76,7.08,7.08,0,0,1-5.23,2.21A7.23,7.23,0,0,1,289,97.07a7.55,7.55,0,0,1-2.2-5.48A7.26,7.26,0,0,1,289,86.3,7.19,7.19,0,0,1,294.23,84.11Zm-5.86,19.25H300.1v46.75H288.37Z" transform="translate(-3.86 -23.89)"/><path class="cls-1" d="M322.4,103.36v5.16a22,22,0,0,1,6.88-4.77,19.74,19.74,0,0,1,7.9-1.59,20.43,20.43,0,0,1,15.56,6.92q6.4,6.92,6.4,17.74a24.49,24.49,0,0,1-6.62,17.47,20.86,20.86,0,0,1-15.68,7,19.48,19.48,0,0,1-7.52-1.44,22.89,22.89,0,0,1-6.92-4.71v22.05H310.76V103.36ZM334.73,113a12.24,12.24,0,0,0-9.19,3.78,13.59,13.59,0,0,0-3.65,9.88,14,14,0,0,0,3.65,10.08,12.14,12.14,0,0,0,9.19,3.84,11.92,11.92,0,0,0,9-3.91,15.32,15.32,0,0,0,.06-19.83A12,12,0,0,0,334.73,113Z" transform="translate(-3.86 -23.89)"/><path class="cls-1" d="M415.69,130.13H378a12.57,12.57,0,0,0,4.36,7.93,13.71,13.71,0,0,0,9.05,2.94,15.65,15.65,0,0,0,11.3-4.59l9.88,4.64a23.25,23.25,0,0,1-8.85,7.75,27.62,27.62,0,0,1-12.24,2.52q-11,0-17.92-6.94A23.63,23.63,0,0,1,366.66,127q0-10.71,6.9-17.77a23.15,23.15,0,0,1,17.29-7.07q11,0,18,7.07t6.92,18.67ZM404,120.9a11.79,11.79,0,0,0-4.59-6.36,13.22,13.22,0,0,0-7.94-2.45,14,14,0,0,0-8.61,2.75,15.23,15.23,0,0,0-4.3,6.06Z" transform="translate(-3.86 -23.89)"/><path class="cls-1" d="M422.44,103.36h10.05v5.89a12.67,12.67,0,0,1,4.34-5.29,10.48,10.48,0,0,1,5.93-1.8,11,11,0,0,1,4.77,1.2l-3.65,10.1a8.06,8.06,0,0,0-3.4-1c-1.8,0-3.33,1.12-4.57,3.35S434,122.4,434,128.93l0,2.28v18.9H422.44Z" transform="translate(-3.86 -23.89)"/><path class="cls-1" d="M454.23,150.11V86.91h9.94q8.65,0,12.65,1.11a17,17,0,0,1,9,5.59,14.72,14.72,0,0,1,3.35,9.62,14.15,14.15,0,0,1-1.52,6.56,16.78,16.78,0,0,1-5,5.52,19.77,19.77,0,0,1,8.43,6.77,17.12,17.12,0,0,1,2.66,9.6,17.93,17.93,0,0,1-2.75,9.71,17.61,17.61,0,0,1-7.1,6.55q-4.35,2.17-12,2.17Zm12-51.73V111.7h2.63q4.39,0,6.53-1.85a6.29,6.29,0,0,0,2.14-5,5.89,5.89,0,0,0-2-4.7q-2-1.74-6.17-1.74Zm0,24.06v16.2h3q7.5,0,10.11-1.89a6.38,6.38,0,0,0,2.6-5.5,7.72,7.72,0,0,0-3.06-6.45q-3.06-2.35-10.17-2.36Z" transform="translate(-3.86 -23.89)"/><path class="cls-1" d="M535.12,85.32A31.35,31.35,0,0,1,558.19,95a32.28,32.28,0,0,1,9.66,23.67,32,32,0,0,1-9.53,23.42,31.36,31.36,0,0,1-23.11,9.58q-14.24,0-23.65-9.84a33.2,33.2,0,0,1,23.56-56.54ZM535,97.09a19.83,19.83,0,0,0-14.76,6.1q-6,6.11-6,15.51,0,10.49,7.53,16.59a20.63,20.63,0,0,0,13.42,4.77,19.56,19.56,0,0,0,14.58-6.19,22.31,22.31,0,0,0,0-30.53A19.76,19.76,0,0,0,535,97.09Z" transform="translate(-3.86 -23.89)"/><path class="cls-1" d="M573,86.91h34.93V98.76H596.38v51.35h-12.2V98.76H573Z" transform="translate(-3.86 -23.89)"/></svg>