<svg id="Layer_1" data-name="Layer 1" xmlns="http://www.w3.org/2000/svg" viewBox="0 0 260.78 202.11"><defs><style>.cls-1{fill:#d04c47;}</style></defs><path class="cls-1" d="M442.31,155.73c-1.51-21.5-16.67-47-36.87-61.91-25.18-18.64-70-22.12-86.59-22.77V56.63a27.2,27.2,0,1,0-12.7,0V71.05c-16.62.65-61.43,4.14-86.59,22.77-20.2,15-35.37,40.41-36.88,61.91a261.23,261.23,0,0,0-.35,28.1A22.12,22.12,0,0,0,203.61,205h1.31c4.71.1,18.3.14,34.31.14,30.82,0,70.6-.13,73.27-.14s42.52.14,73.34.14c16,0,29.51,0,34.19-.14l1.46,0a22.1,22.1,0,0,0,21.18-21.11A261.82,261.82,0,0,0,442.31,155.73ZM298,30.2A14.51,14.51,0,1,1,312.5,44.71,14.52,14.52,0,0,1,298,30.2ZM430,183.32a9.31,9.31,0,0,1-8.81,8.94h-1.38c-13.62.31-201,.31-214.61,0H204a9.34,9.34,0,0,1-8.94-9,247.85,247.85,0,0,1,.34-26.7c1.07-15.24,12.32-38.2,31.76-52.6C254.37,83.84,311.92,83.6,312.5,83.6s58.12.24,85.38,20.42c19.44,14.4,30.69,37.35,31.77,52.6A247.43,247.43,0,0,1,430,183.32Z" transform="translate(-182.11 -3)"/><path class="cls-1" d="M371.34,105.27a34.78,34.78,0,1,0,34.78,34.78A34.82,34.82,0,0,0,371.34,105.27Zm-5.41,54.78a15.51,15.51,0,1,1,16-15.5A15.75,15.75,0,0,1,365.93,160.05Z" transform="translate(-182.11 -3)"/><path class="cls-1" d="M253.41,105.27a34.78,34.78,0,1,0,34.78,34.78A34.82,34.82,0,0,0,253.41,105.27Zm5.41,54.78a15.51,15.51,0,1,1,16-15.5A15.75,15.75,0,0,1,258.82,160.05Z" transform="translate(-182.11 -3)"/><path class="cls-1" d="M327.84,159.11c-6.81,3.78-27.55,3.78-34.36,0s-7.67,1.62-7.73,2.37.17,5.84,10,8.65a53.8,53.8,0,0,0,29.82,0c9.83-2.81,10.05-7.89,10-8.65S334.65,155.32,327.84,159.11Z" transform="translate(-182.11 -3)"/></svg>